<svg width="111" height="32" viewBox="0 0 111 32" fill="none" xmlns="http://www.w3.org/2000/svg">
  <path
    d="M106.889 32H4.11111C1.85103 32 0 30.199 0 28V4C0 1.801 1.85103 1.69118e-06 4.11111 1.69118e-06H106.889C109.149 1.69118e-06 111 1.801 111 4V28C111 30.199 109.149 32 106.889 32Z"
    fill="black"
  />
  <path
    d="M106.889 0.641C108.792 0.641 110.341 2.148 110.341 4V28C110.341 29.852 108.792 31.359 106.889 31.359H4.11111C2.20767 31.359 0.658805 29.852 0.658805 28V4C0.658805 2.148 2.20767 0.641 4.11111 0.641H106.889ZM106.889 1.69118e-06H4.11111C1.85103 1.69118e-06 0 1.801 0 4V28C0 30.199 1.85103 32 4.11111 32H106.889C109.149 32 111 30.199 111 28V4C111 1.801 109.149 1.69118e-06 106.889 1.69118e-06Z"
    fill="white"
  />
  <path
    d="M38.9878 8.1947C38.9878 8.8627 38.7822 9.3977 38.3773 9.7967C37.9117 10.2697 37.3053 10.5077 36.5622 10.5077C35.852 10.5077 35.2456 10.2657 34.7482 9.7887C34.2497 9.3047 34.001 8.7107 34.001 7.9997C34.001 7.2887 34.2497 6.6947 34.7482 6.2147C35.2456 5.7337 35.852 5.4917 36.5622 5.4917C36.9158 5.4917 37.2529 5.5627 37.5746 5.6947C37.8952 5.8277 38.1563 6.0077 38.3454 6.2297L37.9158 6.6517C37.5859 6.2727 37.1367 6.0857 36.5622 6.0857C36.0442 6.0857 35.5951 6.2617 35.2138 6.6167C34.8366 6.9727 34.6474 7.4337 34.6474 7.9997C34.6474 8.5657 34.8366 9.0307 35.2138 9.3867C35.5951 9.7377 36.0442 9.9177 36.5622 9.9177C37.1121 9.9177 37.5746 9.7377 37.9394 9.3827C38.1799 9.1477 38.3166 8.8237 38.3526 8.4097H36.5622V7.8317H38.9508C38.9795 7.9567 38.9878 8.0777 38.9878 8.1947Z"
    fill="white"
    stroke="white"
    stroke-width="0.16"
    stroke-miterlimit="10"
  />
  <path
    d="M42.7772 6.19105H40.5336V7.71105H42.5563V8.28905H40.5336V9.80905H42.7772V10.398H39.8984V5.60205H42.7772V6.19105Z"
    fill="white"
    stroke="white"
    stroke-width="0.16"
    stroke-miterlimit="10"
  />
  <path
    d="M45.4518 10.398H44.8166V6.19105H43.4404V5.60205H46.829V6.19105H45.4518V10.398Z"
    fill="white"
    stroke="white"
    stroke-width="0.16"
    stroke-miterlimit="10"
  />
  <path
    d="M49.2803 10.398V5.60205H49.9144V10.398H49.2803Z"
    fill="white"
    stroke="white"
    stroke-width="0.16"
    stroke-miterlimit="10"
  />
  <path
    d="M52.7262 10.398H52.0962V6.19105H50.7148V5.60205H54.1075V6.19105H52.7262V10.398Z"
    fill="white"
    stroke="white"
    stroke-width="0.16"
    stroke-miterlimit="10"
  />
  <path
    d="M60.5222 9.7807C60.036 10.2657 59.4337 10.5077 58.7153 10.5077C57.9928 10.5077 57.3905 10.2657 56.9044 9.7807C56.4193 9.2967 56.1777 8.7027 56.1777 7.9997C56.1777 7.2967 56.4193 6.7027 56.9044 6.2187C57.3905 5.7337 57.9928 5.4917 58.7153 5.4917C59.4296 5.4917 60.0319 5.7337 60.518 6.2227C61.0073 6.7107 61.2488 7.3007 61.2488 7.9997C61.2488 8.7027 61.0073 9.2967 60.5222 9.7807ZM57.3741 9.3787C57.74 9.7377 58.185 9.9177 58.7153 9.9177C59.2415 9.9177 59.6907 9.7377 60.0525 9.3787C60.4173 9.0197 60.6023 8.5587 60.6023 7.9997C60.6023 7.4407 60.4173 6.9797 60.0525 6.6207C59.6907 6.2617 59.2415 6.0817 58.7153 6.0817C58.185 6.0817 57.74 6.2617 57.3741 6.6207C57.0092 6.9797 56.8242 7.4407 56.8242 7.9997C56.8242 8.5587 57.0092 9.0197 57.3741 9.3787Z"
    fill="white"
    stroke="white"
    stroke-width="0.16"
    stroke-miterlimit="10"
  />
  <path
    d="M62.1406 10.398V5.60205H62.9115L65.3082 9.33205H65.336L65.3082 8.41005V5.60205H65.9424V10.398H65.2805L62.7707 6.48405H62.7429L62.7707 7.41005V10.398H62.1406Z"
    fill="white"
    stroke="white"
    stroke-width="0.16"
    stroke-miterlimit="10"
  />
  <path
    d="M56.0213 17.4022C54.0901 17.4022 52.5124 18.8322 52.5124 20.8052C52.5124 22.7622 54.0901 24.2072 56.0213 24.2072C57.9566 24.2072 59.5342 22.7622 59.5342 20.8052C59.5342 18.8322 57.9566 17.4022 56.0213 17.4022ZM56.0213 22.8672C54.9616 22.8672 54.05 22.0162 54.05 20.8052C54.05 19.5782 54.9616 18.7422 56.0213 18.7422C57.0809 18.7422 57.9967 19.5782 57.9967 20.8052C57.9967 22.0162 57.0809 22.8672 56.0213 22.8672ZM48.3654 17.4022C46.43 17.4022 44.8565 18.8322 44.8565 20.8052C44.8565 22.7622 46.43 24.2072 48.3654 24.2072C50.2996 24.2072 51.8742 22.7622 51.8742 20.8052C51.8742 18.8322 50.2996 17.4022 48.3654 17.4022ZM48.3654 22.8672C47.3047 22.8672 46.39 22.0162 46.39 20.8052C46.39 19.5782 47.3047 18.7422 48.3654 18.7422C49.425 18.7422 50.3366 19.5782 50.3366 20.8052C50.3366 22.0162 49.425 22.8672 48.3654 22.8672ZM39.2551 18.4452V19.8912H42.804C42.7002 20.6992 42.4227 21.2932 41.9972 21.7072C41.4792 22.2072 40.6724 22.7622 39.2551 22.7622C37.0711 22.7622 35.3609 21.0472 35.3609 18.9222C35.3609 16.7972 37.0711 15.0822 39.2551 15.0822C40.4361 15.0822 41.2953 15.5312 41.9294 16.1132L42.9767 15.0942C42.0897 14.2702 40.9099 13.6372 39.2551 13.6372C36.2602 13.6372 33.7432 16.0082 33.7432 18.9222C33.7432 21.8362 36.2602 24.2072 39.2551 24.2072C40.8739 24.2072 42.0897 23.6912 43.0456 22.7232C44.025 21.7702 44.3303 20.4302 44.3303 19.3482C44.3303 19.0122 44.3015 18.7032 44.2501 18.4452H39.2551ZM76.508 19.5662C76.2192 18.8052 75.3281 17.4022 73.513 17.4022C71.7144 17.4022 70.2169 18.7812 70.2169 20.8052C70.2169 22.7112 71.699 24.2072 73.6857 24.2072C75.2921 24.2072 76.2191 23.2542 76.6005 22.6992L75.4082 21.9262C75.0105 22.4922 74.4688 22.8672 73.6857 22.8672C72.9077 22.8672 72.3496 22.5202 71.9919 21.8362L76.6693 19.9532L76.508 19.5662ZM71.7391 20.6992C71.699 19.3872 72.7864 18.7152 73.5654 18.7152C74.1759 18.7152 74.6939 19.0122 74.8666 19.4372L71.7391 20.6992ZM67.9373 24.0002H69.4749V14.0002H67.9373V24.0002ZM65.4193 18.1602H65.3679C65.0225 17.7622 64.3637 17.4022 63.5292 17.4022C61.7779 17.4022 60.1766 18.8982 60.1766 20.8162C60.1766 22.7232 61.7779 24.2072 63.5292 24.2072C64.3637 24.2072 65.0225 23.8442 65.3679 23.4342H65.4193V23.9222C65.4193 25.2232 64.705 25.9222 63.5528 25.9222C62.6134 25.9222 62.0307 25.2622 61.7902 24.7072L60.453 25.2502C60.8385 26.1522 61.859 27.2622 63.5528 27.2622C65.3555 27.2622 66.8767 26.2302 66.8767 23.7192V17.6092H65.4193V18.1602ZM63.6607 22.8672C62.6011 22.8672 61.7141 22.0042 61.7141 20.8162C61.7141 19.6172 62.6011 18.7422 63.6607 18.7422C64.705 18.7422 65.5282 19.6172 65.5282 20.8162C65.5282 22.0042 64.705 22.8672 63.6607 22.8672ZM83.7065 14.0002H80.0291V24.0002H81.5626V20.2112H83.7065C85.4095 20.2112 87.0797 19.0122 87.0797 17.1052C87.0797 15.1992 85.4054 14.0002 83.7065 14.0002ZM83.7466 18.8202H81.5626V15.3912H83.7466C84.8915 15.3912 85.5452 16.3162 85.5452 17.1052C85.5452 17.8792 84.8915 18.8202 83.7466 18.8202ZM93.2258 17.3832C92.1178 17.3832 90.9657 17.8592 90.4919 18.9142L91.8527 19.4692C92.1456 18.9142 92.6841 18.7342 93.2535 18.7342C94.049 18.7342 94.8558 19.1992 94.8682 20.0202V20.1252C94.5907 19.9692 93.9966 19.7382 93.2659 19.7382C91.8003 19.7382 90.3069 20.5232 90.3069 21.9882C90.3069 23.3282 91.5073 24.1912 92.8568 24.1912C93.8887 24.1912 94.4581 23.7382 94.8158 23.2112H94.8682V23.9842H96.3492V20.1482C96.3492 18.3752 94.9884 17.3832 93.2258 17.3832ZM93.0408 22.8632C92.5392 22.8632 91.8403 22.6212 91.8403 22.0162C91.8403 21.2422 92.7119 20.9452 93.4663 20.9452C94.1415 20.9452 94.4581 21.0902 94.8682 21.2812C94.7479 22.2072 93.9288 22.8632 93.0408 22.8632ZM101.745 17.6022L99.9824 21.9372H99.93L98.1077 17.6022H96.454L99.192 23.6602L97.6298 27.0312H99.2321L103.451 17.6022H101.745ZM87.9225 24.0002H89.46V14.0002H87.9225V24.0002Z"
    fill="white"
  />
  <path
    d="M8.58052 6.03085C8.339 6.27685 8.19922 6.65985 8.19922 7.15585V24.8479C8.19922 25.3439 8.339 25.7269 8.58052 25.9729L8.64014 26.0269L18.8295 16.1169V15.8829L8.64014 5.97285L8.58052 6.03085Z"
    fill="url(#paint0_linear_7312_23506)"
  />
  <path
    d="M22.2218 19.4219L18.8291 16.1169V15.8829L22.2259 12.5779L22.302 12.6209L26.3247 14.8479C27.4727 15.4799 27.4727 16.5199 26.3247 17.1559L22.302 19.3789L22.2218 19.4219Z"
    fill="url(#paint1_linear_7312_23506)"
  />
  <path
    d="M22.3019 19.379L18.8291 16L8.58008 25.973C8.96138 26.363 9.58319 26.41 10.2903 26.02L22.3019 19.379Z"
    fill="url(#paint2_linear_7312_23506)"
  />
  <path
    d="M22.3019 12.621L10.2903 5.98C9.58319 5.594 8.96138 5.641 8.58008 6.031L18.8291 16L22.3019 12.621Z"
    fill="url(#paint3_linear_7312_23506)"
  />
  <defs>
    <linearGradient
      id="paint0_linear_7312_23506"
      x1="17.9248"
      y1="25.0321"
      x2="4.50394"
      y2="11.2384"
      gradientUnits="userSpaceOnUse"
    >
      <stop stop-color="#00A0FF" />
      <stop offset="0.0066" stop-color="#00A1FF" />
      <stop offset="0.2601" stop-color="#00BEFF" />
      <stop offset="0.5122" stop-color="#00D2FF" />
      <stop offset="0.7604" stop-color="#00DFFF" />
      <stop offset="1" stop-color="#00E3FF" />
    </linearGradient>
    <linearGradient
      id="paint1_linear_7312_23506"
      x1="27.8196"
      y1="15.9988"
      x2="7.92438"
      y2="15.9988"
      gradientUnits="userSpaceOnUse"
    >
      <stop stop-color="#FFE000" />
      <stop offset="0.4087" stop-color="#FFBD00" />
      <stop offset="0.7754" stop-color="#FFA500" />
      <stop offset="1" stop-color="#FF9C00" />
    </linearGradient>
    <linearGradient
      id="paint2_linear_7312_23506"
      x1="20.4135"
      y1="14.1631"
      x2="2.21369"
      y2="-4.54226"
      gradientUnits="userSpaceOnUse"
    >
      <stop stop-color="#FF3A44" />
      <stop offset="1" stop-color="#C31162" />
    </linearGradient>
    <linearGradient
      id="paint3_linear_7312_23506"
      x1="6.00019"
      y1="31.859"
      x2="14.1272"
      y2="23.5063"
      gradientUnits="userSpaceOnUse"
    >
      <stop stop-color="#32A071" />
      <stop offset="0.0685" stop-color="#2DA771" />
      <stop offset="0.4762" stop-color="#15CF74" />
      <stop offset="0.8009" stop-color="#06E775" />
      <stop offset="1" stop-color="#00F076" />
    </linearGradient>
  </defs>
</svg>
