<svg width="40" height="40" viewBox="0 0 40 40" fill="none" xmlns="http://www.w3.org/2000/svg">
  <circle cx="20" cy="20" r="20" fill="#F4F4F4" />
  <path
    d="M20 14C21.1 14 22 14.9 22 16C22 17.1 21.1 18 20 18C18.9 18 18 17.1 18 16C18 14.9 18.9 14 20 14ZM20 23C22.7 23 25.8 24.29 26 25V26H14V25.01C14.2 24.29 17.3 23 20 23ZM20 12C17.79 12 16 13.79 16 16C16 18.21 17.79 20 20 20C22.21 20 24 18.21 24 16C24 13.79 22.21 12 20 12ZM20 21C17.33 21 12 22.34 12 25V28H28V25C28 22.34 22.67 21 20 21Z"
    fill="#626262"
  />
</svg>
