<svg width="664" height="803" viewBox="0 0 664 803" fill="none" xmlns="http://www.w3.org/2000/svg">
    <rect width="664" height="589" transform="translate(0 214)" fill="white"/>
    <g clip-path="url(#clip0_550_715)">
        <path d="M637.375 605.27C641.276 598.689 644.202 591.742 646.152 584.551L661.756 581.626L661.878 564.441L662 547.257L646.518 543.966C644.689 536.775 641.885 529.707 638.106 523.125L647.005 510.084L634.937 497.775L622.868 485.465L609.58 494.118C602.997 490.218 596.049 487.293 588.856 485.343L585.931 469.743L568.742 469.621L551.553 469.499L548.262 484.978C541.069 486.806 533.998 489.609 527.416 493.387L514.372 484.49L502.059 496.556L489.747 508.622L498.402 521.906C494.501 528.488 491.575 535.435 489.625 542.625L474.021 545.55L473.899 562.735L473.777 579.92L489.259 583.21C491.088 590.401 493.891 597.47 497.67 604.051L488.771 617.092L500.84 629.402L512.909 641.711L526.197 633.058C532.779 636.958 539.728 639.883 546.921 641.833L549.846 657.433L567.035 657.555L584.224 657.677L587.515 642.199C594.708 640.371 601.778 637.567 608.361 633.789L621.405 642.686L633.718 630.62L646.03 618.555L637.375 605.27ZM537.778 593.082C521.442 576.507 521.686 549.816 538.387 533.485C554.966 517.153 581.664 517.397 597.999 534.094C614.335 550.669 614.091 577.36 597.39 593.692C580.81 609.901 554.113 609.658 537.778 593.082Z" fill="url(#paint0_linear_550_715)"/>
        <path d="M228.867 466.453C231.306 461.334 232.89 455.849 233.866 450.365L245.203 446.952L243.984 434.155L242.765 421.358L231.062 420.139C229.233 414.899 226.551 409.902 223.26 405.27L228.867 394.911L218.993 386.745L209.119 378.579L199.976 386.014C194.856 383.576 189.37 381.992 183.884 381.017L180.471 369.682L167.67 370.901L154.87 372.12L153.651 383.82C148.409 385.648 143.411 388.33 138.779 391.62L128.417 386.014L120.249 395.886L112.081 405.758L119.518 414.899C117.079 420.017 115.495 425.502 114.519 430.986L103.182 434.399L104.401 447.196L105.62 459.993L117.323 461.212C119.152 466.453 121.834 471.449 125.125 476.081L119.518 486.44L129.392 494.606L139.266 502.772L148.409 495.337C153.529 497.775 159.015 499.359 164.501 500.334L167.914 511.669L180.714 510.45L193.515 509.231L194.734 497.531C199.976 495.703 204.974 493.022 209.606 489.731L219.968 495.337L228.136 485.465L236.304 475.593L228.867 466.453ZM154.017 464.99C140.607 453.899 138.779 434.033 149.872 420.627C160.966 407.22 180.836 405.392 194.246 416.483C207.656 427.574 209.484 447.44 198.391 460.846C187.175 474.253 167.305 476.081 154.017 464.99Z" fill="url(#paint1_linear_550_715)"/>
        <path d="M608.361 724.953H607.264V648.293C607.264 631.23 593.367 617.336 576.3 617.336H497.427C479.75 617.336 465.366 602.954 465.366 585.282V442.199C465.366 425.136 451.468 411.242 434.401 411.242H233.5V410.145H434.523C452.2 410.145 466.585 424.527 466.585 442.199V585.404C466.585 602.467 480.482 616.361 497.549 616.361H576.422C594.098 616.361 608.483 630.742 608.483 648.414V724.953H608.361Z" fill="url(#paint2_linear_550_715)"/>
        <path d="M285.066 361.76C285.066 361.76 297.257 410.145 267.999 423.43C238.742 436.715 244.349 412.461 244.349 412.461C244.349 412.461 232.403 409.17 264.952 390.645C280.434 381.87 285.066 361.76 285.066 361.76Z" fill="#BBD070"/>
        <path d="M361.623 365.904C361.623 365.904 367.597 408.074 312.373 426.355C257.028 444.637 249.226 467.793 249.226 467.793C249.226 467.793 247.397 374.314 361.623 365.904Z" fill="#97A43C"/>
        <path d="M248.86 450.609C232.525 444.393 271.413 410.755 301.402 411.73C331.391 412.583 351.627 423.674 371.742 419.042C371.62 419.042 329.562 481.443 248.86 450.609Z" fill="#48753A"/>
        <path d="M303.961 478.64C304.936 465.965 305.546 454.021 305.912 442.93C302.864 441.346 299.085 439.396 296.159 438.055C287.016 433.668 274.216 427.818 266.048 424.039C261.294 421.846 256.54 420.261 256.54 420.261C256.54 420.261 223.869 417.092 221.187 417.336C220.334 417.336 216.311 418.799 210.947 420.871C199.366 425.258 177.057 434.277 173.4 436.836C168.158 440.615 149.506 532.144 149.019 538.36C148.531 544.454 174.375 552.619 198.391 558.957C198.391 568.22 198.147 581.26 198.025 593.082C198.025 595.154 197.903 597.104 197.903 599.054H302.742C302.62 596.982 302.498 595.032 302.376 593.082C302.376 592.839 302.376 592.595 302.376 592.351C302.011 584.307 300.426 569.926 300.792 555.91C300.792 555.91 300.548 541.163 302.011 534.825C302.255 506.55 303.961 478.64 303.961 478.64ZM170.962 532.51C171.084 520.566 187.053 498.384 187.053 498.384C187.053 498.384 187.785 498.019 187.785 498.14L188.638 498.019L191.076 495.703C191.686 497.775 196.928 527.756 198.147 545.185C183.274 542.26 170.84 538.116 170.962 532.51Z" fill="#DBD8E3"/>
        <path d="M305.912 592.961C305.181 587.964 304.571 583.089 303.961 578.213C303.961 578.213 303.961 578.213 303.961 578.092C303.718 576.507 303.596 574.923 303.352 573.338C303.352 573.217 303.352 573.217 303.352 573.095C302.62 566.391 301.889 559.932 301.523 554.082C301.158 549.572 301.523 545.185 302.133 540.919C303.961 510.816 304.815 479.25 304.815 479.25C305.79 466.331 306.278 454.143 306.643 442.808C306.643 442.808 265.561 423.43 261.904 422.333C261.904 422.333 269.706 440.615 275.557 481.443C277.752 497.165 282.018 523.613 284.944 550.547C286.529 565.051 289.698 579.92 292.015 593.082C292.38 595.154 292.746 597.104 292.99 599.054H306.765C306.4 596.861 306.156 594.911 305.912 592.961Z" fill="#323657"/>
        <path d="M237.523 544.697C239.107 529.463 240.57 514.35 239.839 506.062C234.231 439.274 218.14 421.602 215.823 419.042C213.995 419.774 207.168 422.333 205.217 423.064C194.246 427.33 171.937 435.252 168.889 437.446C163.647 441.224 143.045 537.141 142.436 543.357C142.07 547.501 168.889 556.276 196.318 564.198C196.075 571.754 196.806 582.357 194.246 593.326C193.758 595.276 193.149 596.495 193.027 599.176L231.184 599.054C231.427 597.104 231.671 595.154 231.915 593.082C232.646 587.111 233.378 581.017 234.109 574.557C245.568 577.482 253.37 579.432 253.37 579.432C253.37 579.432 264.098 561.273 267.268 553.838C267.999 552.376 254.102 549.085 237.523 544.697ZM188.151 521.663C187.785 508.012 187.907 498.506 187.907 498.506C189.248 503.137 191.076 516.544 192.783 529.828C187.175 527.025 188.151 524.466 188.151 521.663Z" fill="#323657"/>
        <path d="M219.603 418.311C219.603 418.311 223.747 410.511 222.65 388.208C222.284 381.992 255.077 402.833 255.077 402.833C255.077 402.833 254.955 404.905 254.833 407.83C254.833 409.049 254.833 410.389 254.833 411.73C254.833 412.095 254.833 412.461 254.833 412.827C254.833 413.436 254.833 414.046 254.833 414.655C254.833 415.386 254.833 416.117 254.955 416.849C254.955 417.702 255.077 418.433 255.077 419.164C255.199 420.505 256.052 422.943 256.296 423.552C257.759 426.843 231.793 427.086 219.603 418.311Z" fill="#EEA987"/>
        <path d="M247.032 432.449L253.127 440.615C253.127 440.615 249.592 445.368 243.252 441.833L247.032 432.449Z" fill="#E8734D"/>
        <path d="M251.42 440.98C251.42 440.98 273.607 494.972 268.853 563.71L261.904 576.385L253.98 565.538C253.98 565.538 252.761 474.374 246.422 440.736L251.42 440.98Z" fill="#E8734D"/>
        <path d="M253.493 424.893L247.032 432.449C247.032 432.449 236.67 430.499 233.622 425.014C230.574 419.652 253.493 424.893 253.493 424.893Z" fill="#EEA987"/>
        <path d="M254.955 418.311C254.955 418.311 254.224 424.039 247.031 432.449L254.833 443.052L259.1 421.114L254.955 418.311Z" fill="#C4C1CC"/>
        <path d="M221.553 411.364C221.553 411.364 236.547 428.305 247.031 432.449L242.155 444.515L218.14 418.189L221.553 411.364Z" fill="#C4C1CC"/>
        <path d="M375.886 564.929C375.886 564.929 356.016 545.551 342.85 542.382C336.754 540.919 328.831 532.51 321.272 522.76C318.834 519.591 316.396 516.178 313.958 512.766C304.693 499.359 297.379 486.562 297.379 486.562C297.379 486.562 269.95 454.387 292.015 440.127C292.015 440.127 301.402 439.883 306.644 442.687C312.007 445.612 323.345 469.256 325.173 473.4C327.124 477.543 347.97 516.544 349.311 517.397C350.652 518.25 353.09 521.419 361.379 525.928C371.62 531.413 387.589 547.501 387.589 547.501L375.886 564.929Z" fill="#323657"/>
        <path d="M280.19 587.354C280.19 587.354 277.386 587.232 276.167 586.623C276.167 586.623 274.095 585.282 272.51 584.429C272.022 584.185 271.535 583.942 271.291 583.82C270.072 583.332 267.268 582.601 264.586 580.651C262.026 578.701 253.371 570.657 253.371 570.657L258.856 562.126L261.416 553.716C261.416 553.716 281.287 555.666 283.969 557.251C284.213 557.373 284.457 557.616 284.7 557.738C286.773 559.323 287.748 561.394 288.723 562.248C289.089 562.613 292.624 566.27 292.381 567.854C292.137 569.926 291.04 571.267 289.821 571.876C289.821 571.876 289.089 575.898 287.017 577.726C287.017 577.726 286.529 581.504 283.238 582.967C283.481 583.089 282.506 586.867 280.19 587.354Z" fill="#EFAA88"/>
        <path d="M248.494 330.56C248.494 330.56 284.456 321.907 276.898 367.489C269.34 413.071 260.685 416.727 238.742 407.708C216.798 398.567 218.383 369.439 217.042 355.179C215.701 340.92 237.035 331.291 248.494 330.56Z" fill="#EEA886"/>
        <path d="M229.599 362.126C229.111 358.104 221.066 356.763 220.578 362.735C219.968 368.707 224.479 379.189 227.405 378.214C230.33 377.117 230.33 367.61 229.599 362.126Z" fill="#EEA886"/>
        <path d="M219.115 378.457C219.115 378.457 219.846 364.076 225.088 363.589C230.33 363.101 231.183 368.829 231.183 368.829L236.425 369.804C236.425 369.804 234.597 357.251 239.717 355.057C244.959 352.742 273.607 361.517 277.752 357.738C281.896 353.96 279.58 328.61 271.9 325.197C264.22 321.785 243.252 314.35 228.014 324.954C228.014 324.954 216.067 323.735 214.36 333.485C213.019 342.991 215.823 371.389 219.115 378.457Z" fill="#16202E"/>
        <path d="M268.365 553.716L253.492 579.31C253.492 579.31 214.117 569.195 204.974 566.635L225.941 541.65C225.941 541.529 256.906 548.597 268.365 553.716Z" fill="#323657"/>
        <path d="M254.834 416.727C235.572 414.777 228.014 399.908 228.014 399.908C240.205 411.974 254.712 411.608 254.712 411.608C254.712 411.974 254.712 412.339 254.712 412.705C254.712 413.314 254.712 413.924 254.712 414.533C254.834 415.386 254.834 416.117 254.834 416.727Z" fill="#A77860"/>
        <path d="M521.564 643.174C520.467 641.833 518.882 640.858 516.931 640.858C514.371 640.858 512.055 642.442 511.324 644.88C511.08 645.489 511.08 646.099 510.958 646.708C510.958 647.439 511.08 648.171 511.324 648.78C511.689 649.877 512.421 650.73 513.274 651.461C514.128 652.071 515.225 652.558 516.322 652.68C516.444 652.68 516.688 652.68 516.809 652.68C516.931 652.68 517.053 652.68 517.053 652.68H517.175C517.785 652.68 518.272 652.558 518.882 652.314C521.076 651.461 522.661 649.389 522.783 646.83C522.661 645.489 522.295 644.271 521.564 643.174ZM518.272 650.852C517.907 650.974 517.419 651.096 517.053 651.096C516.931 651.096 516.809 651.096 516.809 651.096C516.444 651.096 515.956 650.974 515.59 650.852C515.103 650.73 514.615 650.486 514.128 650.121C514.006 649.999 513.884 649.877 513.64 649.755C512.787 648.902 512.299 647.805 512.421 646.586C512.421 646.221 512.421 645.977 512.543 645.611C512.543 645.489 512.665 645.367 512.665 645.124C513.274 643.417 514.981 642.077 516.931 642.077C518.394 642.077 519.613 642.808 520.345 643.783C520.954 644.514 521.32 645.489 521.198 646.464C521.198 648.658 519.979 650.243 518.272 650.852Z" fill="#4DA8F2"/>
        <path d="M296.281 532.632C318.712 555.666 348.213 584.673 348.213 584.673L359.794 562.735C359.794 562.735 333.585 531.9 315.786 511.425C310.3 514.106 300.304 520.566 296.281 532.632Z" fill="#EEA886"/>
        <path d="M282.506 563.71C282.506 563.71 288.479 566.635 290.064 567.976C291.649 569.316 297.988 574.07 299.573 575.167C301.158 576.263 297.257 579.432 285.797 574.557C274.46 569.438 282.506 563.71 282.506 563.71Z" fill="#EEA886"/>
        <path d="M282.994 497.775L272.51 595.398H410.751L421.235 497.775H282.994Z" fill="url(#paint3_linear_550_715)"/>
        <path d="M418.675 590.889H279.336L289.942 492.168H429.281L418.675 590.889ZM280.555 589.792H417.7L428.062 493.265H290.918L280.555 589.792Z" fill="url(#paint4_linear_550_715)"/>
        <path d="M261.596 595.285H284.637V586.509H261.596V595.285Z" fill="#FFC955"/>
        <path d="M415.018 595.154H39.4253V601.126H415.018V595.154Z" fill="#FFC955"/>
        <path d="M45.1549 595.154H39.4253V601.126H45.1549V595.154Z" fill="#FFC955"/>
        <path d="M51.0064 595.154H45.2769V601.126H51.0064V595.154Z" fill="#FFC955"/>
        <path d="M56.7359 595.154H51.0063V601.126H56.7359V595.154Z" fill="#FFC955"/>
        <path d="M62.5875 595.154H56.8579V601.126H62.5875V595.154Z" fill="#FFC955"/>
        <path d="M68.317 595.154H62.5874V601.126H68.317V595.154Z" fill="#FFC955"/>
        <path d="M74.0465 595.154H68.3169V601.126H74.0465V595.154Z" fill="#FFC955"/>
        <path d="M79.898 595.154H74.1685V601.126H79.898V595.154Z" fill="#FFC955"/>
        <path d="M85.6275 595.154H79.8979V601.126H85.6275V595.154Z" fill="#FFC955"/>
        <path d="M91.4791 595.154H85.7495V601.126H91.4791V595.154Z" fill="#FFC955"/>
        <path d="M97.2086 595.154H91.479V601.126H97.2086V595.154Z" fill="#FFC955"/>
        <path d="M102.939 595.154H97.209V601.126H102.939V595.154Z" fill="#FFC955"/>
        <path d="M108.79 595.154H103.061V601.126H108.79V595.154Z" fill="#FFC955"/>
        <path d="M114.52 595.154H108.79V601.126H114.52V595.154Z" fill="#FFC955"/>
        <path d="M120.371 595.154H114.642V601.126H120.371V595.154Z" fill="#FFC955"/>
        <path d="M126.101 595.154H120.371V601.126H126.101V595.154Z" fill="#FFC955"/>
        <path d="M131.83 595.154H126.101V601.126H131.83V595.154Z" fill="#FFC955"/>
        <path d="M137.682 595.154H131.952V601.126H137.682V595.154Z" fill="#FFC955"/>
        <path d="M143.411 595.154H137.682V601.126H143.411V595.154Z" fill="#FFC955"/>
        <path d="M149.263 595.154H143.533V601.126H149.263V595.154Z" fill="#FFC955"/>
        <path d="M154.992 595.154H149.263V601.126H154.992V595.154Z" fill="#FFC955"/>
        <path d="M160.722 595.154H154.992V601.126H160.722V595.154Z" fill="#FFC955"/>
        <path d="M166.573 595.154H160.844V601.126H166.573V595.154Z" fill="#FFC955"/>
        <path d="M172.303 595.154H166.573V601.126H172.303V595.154Z" fill="#FFC955"/>
        <path d="M178.154 595.154H172.425V601.126H178.154V595.154Z" fill="#FFC955"/>
        <path d="M183.884 595.154H178.154V601.126H183.884V595.154Z" fill="#FFC955"/>
        <path d="M189.614 595.154H183.884V601.126H189.614V595.154Z" fill="#FFC955"/>
        <path d="M195.465 595.154H189.735V601.126H195.465V595.154Z" fill="#FFC955"/>
        <path d="M201.195 595.154H195.465V601.126H201.195V595.154Z" fill="#FFC955"/>
        <path d="M207.046 595.154H201.317V601.126H207.046V595.154Z" fill="#FFC955"/>
        <path d="M212.776 595.154H207.046V601.126H212.776V595.154Z" fill="#FFC955"/>
        <path d="M218.505 595.154H212.776V601.126H218.505V595.154Z" fill="#FFC955"/>
        <path d="M224.357 595.154H218.627V601.126H224.357V595.154Z" fill="#FFC955"/>
        <path d="M230.087 595.154H224.357V601.126H230.087V595.154Z" fill="#FFC955"/>
        <path d="M235.938 595.154H230.208V601.126H235.938V595.154Z" fill="#FFC955"/>
        <path d="M241.668 595.154H235.938V601.126H241.668V595.154Z" fill="#FFC955"/>
        <path d="M247.519 595.154H241.79V601.126H247.519V595.154Z" fill="#FFC955"/>
        <path d="M253.249 595.154H247.519V601.126H253.249V595.154Z" fill="#FFC955"/>
        <path d="M258.978 595.154H253.249V601.126H258.978V595.154Z" fill="#FFC955"/>
        <path d="M264.83 595.154H259.1V601.126H264.83V595.154Z" fill="#FFC955"/>
        <path d="M270.559 595.154H264.83V601.126H270.559V595.154Z" fill="#FFC955"/>
        <path d="M276.411 595.154H270.681V601.126H276.411V595.154Z" fill="#FFC955"/>
        <path d="M282.14 595.154H276.411V601.126H282.14V595.154Z" fill="#FFC955"/>
        <path d="M287.87 595.154H282.141V601.126H287.87V595.154Z" fill="#FFC955"/>
        <path d="M293.722 595.154H287.992V601.126H293.722V595.154Z" fill="#FFC955"/>
        <path d="M299.451 595.154H293.722V601.126H299.451V595.154Z" fill="#FFC955"/>
        <path d="M305.303 595.154H299.573V601.126H305.303V595.154Z" fill="#FFC955"/>
        <path d="M311.032 595.154H305.303V601.126H311.032V595.154Z" fill="#FFC955"/>
        <path d="M316.762 595.154H311.032V601.126H316.762V595.154Z" fill="#FFC955"/>
        <path d="M322.613 595.154H316.884V601.126H322.613V595.154Z" fill="#FFC955"/>
        <path d="M328.343 595.154H322.613V601.126H328.343V595.154Z" fill="#FFC955"/>
        <path d="M334.194 595.154H328.465V601.126H334.194V595.154Z" fill="#FFC955"/>
        <path d="M339.924 595.154H334.194V601.126H339.924V595.154Z" fill="#FFC955"/>
        <path d="M345.653 595.154H339.924V601.126H345.653V595.154Z" fill="#FFC955"/>
        <path d="M351.505 595.154H345.775V601.126H351.505V595.154Z" fill="#FFC955"/>
        <path d="M357.234 595.154H351.505V601.126H357.234V595.154Z" fill="#FFC955"/>
        <path d="M363.086 595.154H357.356V601.126H363.086V595.154Z" fill="#FFC955"/>
        <path d="M368.816 595.154H363.086V601.126H368.816V595.154Z" fill="#FFC955"/>
        <path d="M374.546 595.154H368.816V601.126H374.546V595.154Z" fill="#FFC955"/>
        <path d="M380.397 595.154H374.667V601.126H380.397V595.154Z" fill="#FFC955"/>
        <path d="M386.127 595.154H380.397V601.126H386.127V595.154Z" fill="#FFC955"/>
        <path d="M391.978 595.154H386.249V601.126H391.978V595.154Z" fill="#FFC955"/>
        <path d="M397.708 595.154H391.978V601.126H397.708V595.154Z" fill="#FFC955"/>
        <path d="M403.437 595.154H397.708V601.126H403.437V595.154Z" fill="#FFC955"/>
        <path d="M409.289 595.154H403.559V601.126H409.289V595.154Z" fill="#FFC955"/>
        <path d="M415.018 595.154H409.289V601.126H415.018V595.154Z" fill="#FFC955"/>
        <path d="M644.689 722.028H319.2V728H644.689V722.028Z" fill="#FFC955"/>
        <path d="M339.192 544.941C338.095 550.426 340.655 555.422 344.8 556.397C349.067 557.251 353.333 553.594 354.431 548.11C355.528 542.625 352.968 537.507 348.823 536.653C344.678 535.8 340.289 539.578 339.192 544.941Z" fill="#FFD255"/>
        <path d="M602.876 506.306C602.876 506.306 606.045 511.669 607.386 512.644C609.215 513.863 608.118 515.081 607.142 515.081C606.289 515.081 601.9 515.447 600.925 514.35C599.95 513.253 599.462 509.963 598.609 509.109C597.756 508.256 596.78 504.844 599.096 503.991C601.047 503.016 602.876 506.306 602.876 506.306Z" fill="#6069A8"/>
        <path d="M601.412 503.869C601.412 503.869 605.07 510.206 605.679 511.181C606.289 512.156 604.46 512.156 603.363 511.669C602.266 511.181 599.462 506.672 598.974 505.819C598.487 504.844 598.852 503.747 598.852 503.747L601.412 503.869Z" fill="#202338"/>
        <path d="M597.755 507.281L598.609 513.863H598.974L598.853 509.109L597.755 507.281Z" fill="#6069A8"/>
        <path d="M571.18 506.306C571.18 506.306 574.349 511.669 575.69 512.644C577.519 513.863 576.422 515.081 575.446 515.081C574.593 515.081 570.205 515.447 569.229 514.35C568.254 513.253 567.766 509.963 566.913 509.109C566.06 508.256 565.084 504.722 567.401 503.991C569.351 503.137 571.18 506.306 571.18 506.306Z" fill="#6069A8"/>
        <path d="M569.961 503.869C569.961 503.869 573.374 510.206 574.106 511.059C574.715 512.034 572.887 512.034 571.79 511.547C570.692 511.059 567.889 506.55 567.401 505.697C566.913 504.722 567.279 503.625 567.279 503.625L569.961 503.869Z" fill="#202338"/>
        <path d="M566.182 507.281L566.913 513.863H567.401L567.279 509.109L566.182 507.281Z" fill="#6069A8"/>
        <path d="M557.039 457.068L585.93 470.231C585.93 470.231 589.1 471.328 589.466 474.862C590.563 486.075 598.974 503.747 598.974 503.747C601.656 505.087 601.412 503.869 601.412 503.869C599.706 498.506 597.633 476.081 596.902 467.184C596.78 465.234 596.658 464.015 596.658 463.527C596.658 463.284 596.292 462.918 595.805 462.431C591.904 459.262 575.568 452.559 575.568 452.559C563.378 452.315 557.039 457.068 557.039 457.068Z" fill="#202338"/>
        <path d="M551.675 462.796C552.528 470.596 563.744 469.743 563.744 469.743H577.275C577.275 469.743 573.74 477.665 572.399 484.246C570.936 491.315 567.523 503.747 567.523 503.747C567.523 503.747 567.766 504.112 570.205 503.991C570.205 503.991 580.81 482.906 584.833 477.543C585.687 476.446 588.247 470.231 588.612 466.452C588.734 465.234 588.612 464.259 588.247 463.893C587.759 463.527 586.662 462.796 585.321 461.821C581.054 459.14 573.74 454.996 569.717 454.143C564.231 452.924 555.576 450.609 555.576 450.609C555.576 450.609 550.7 454.996 551.675 462.796Z" fill="#202338"/>
        <path d="M560.818 402.711C560.818 402.711 558.745 398.933 559.842 394.789C560.818 390.767 564.597 386.623 570.204 388.451C575.812 390.279 580.201 394.667 576.909 399.664C573.618 404.661 579.957 406.855 578.25 409.292C576.665 411.608 577.275 414.167 577.884 414.655C578.616 415.264 580.81 417.214 580.566 419.53C580.323 421.846 569.839 412.705 569.839 412.705C569.839 412.705 563.987 401.248 560.818 402.711Z" fill="#464240"/>
        <path d="M577.763 451.705C577.763 451.705 576.909 455.727 555.332 450.608C555.332 450.608 562.524 448.171 577.763 451.705Z" fill="#EB4747"/>
        <path d="M555.088 451.827C554.722 452.437 554.478 453.046 554.113 453.777C562.037 454.021 569.839 454.265 577.763 454.509C576.543 450.365 576.909 444.636 577.153 440.371C577.397 435.13 580.323 431.474 579.957 426.233C581.542 426.477 581.785 426.477 583.37 426.721C580.932 419.896 580.201 416.605 572.764 413.924C570.326 413.07 568.741 412.949 566.181 413.07C557.648 413.802 554.966 413.924 550.821 421.602C557.404 422.699 556.307 425.014 558.379 431.596C559.355 434.764 560.33 438.421 559.842 441.711C559.233 445.124 555.088 448.78 555.088 451.827Z" fill="#5F8CC9"/>
        <path d="M568.741 415.508C565.206 414.899 565.938 412.949 565.938 412.949C565.938 412.949 566.06 411.852 566.181 410.511C566.181 410.145 566.181 409.78 566.181 409.414C566.181 408.805 566.181 408.195 566.06 407.708C565.816 405.392 572.399 406.733 572.399 406.733C572.399 406.733 572.033 411.486 572.886 412.949C573.983 414.167 572.277 416.117 568.741 415.508Z" fill="#EEA886"/>
        <path d="M562.037 412.827C562.037 412.827 569.108 420.992 571.79 422.942C571.79 422.942 574.837 420.261 572.887 413.07C572.887 413.07 569.473 411.364 562.037 412.827Z" fill="#EEA886"/>
        <path d="M562.281 393.204C562.281 393.204 558.624 400.273 562.281 406.977C565.938 413.68 573.13 404.052 573.618 402.955C574.106 401.858 576.544 395.398 571.667 393.448C566.669 391.498 563.378 391.254 562.281 393.204Z" fill="#EEA886"/>
        <path d="M563.5 395.642C563.5 395.642 560.94 398.933 560.696 401.37C560.696 401.37 559.721 396.739 562.524 392.23C565.328 387.72 572.643 391.986 573.618 393.814C574.593 395.642 577.397 397.226 572.643 404.783C572.643 404.905 563.987 398.933 563.5 395.642Z" fill="#464240"/>
        <path d="M569.351 407.708C569.351 407.708 568.742 409.049 566.182 410.389C566.182 410.024 566.182 409.658 566.182 409.292C566.304 409.292 568.01 409.049 569.351 407.708Z" fill="#A77860"/>
        <path d="M532.17 445.368C532.17 445.368 530.463 446.099 529.61 445.733C528.756 445.368 527.537 445.368 527.05 445.368C526.562 445.368 524.855 444.758 524.855 445.368C524.855 445.977 527.659 446.465 528.147 446.708C528.756 446.952 526.44 448.171 526.318 448.658C526.075 449.146 528.635 452.802 529.976 451.705C531.438 450.73 532.17 448.658 532.414 448.537C532.657 448.415 533.511 447.805 533.511 447.805L532.17 445.368Z" fill="#EEA886"/>
        <path d="M526.562 448.415C526.562 448.415 522.417 451.827 522.417 452.315C522.295 452.802 522.539 453.046 523.027 452.68C523.393 452.437 527.05 449.512 527.05 449.512C527.05 449.512 522.905 454.387 522.783 454.752C522.661 454.996 523.149 455.362 523.271 455.24C523.514 455.118 527.903 450.487 527.903 450.487C527.903 450.487 524.124 454.996 524.002 455.362C524.002 455.605 524.49 455.971 524.734 455.605C525.099 455.24 528.878 451.34 528.878 451.34C528.878 451.34 526.318 454.874 526.44 455.118C526.562 455.362 526.806 455.727 527.537 454.752C528.147 453.777 529.854 451.827 529.854 451.827L526.562 448.415Z" fill="#EEA886"/>
        <path d="M575.69 469.621H563.621C563.621 469.621 552.528 470.474 551.553 462.674C550.699 454.874 555.21 450.609 555.21 450.609C555.21 450.609 561.061 452.193 566.181 453.412C568.742 452.924 571.911 452.559 575.446 452.559C575.446 452.559 597.268 459.749 596.536 463.527C596.658 463.649 587.637 458.774 575.69 469.621Z" fill="#FFC955"/>
        <path d="M567.889 456.215L590.929 455.849L579.226 461.699L567.889 456.215Z" fill="#5E5853"/>
        <path d="M575.081 453.168C575.081 453.168 569.839 455.118 563.5 453.412L563.256 451.096L576.3 451.827L575.081 453.168Z" fill="#5F8CC9"/>
        <path d="M579.226 461.699L567.889 457.312V456.215L580.201 460.602L579.226 461.699Z" fill="#91887F"/>
        <path d="M574.959 454.265C574.837 455.118 575.813 455.727 576.544 455.362L577.885 454.752C578.251 454.63 578.495 454.143 578.495 453.777C577.885 450.243 576.788 436.715 578.495 434.399C579.104 433.546 579.592 432.814 579.714 432.083C580.811 435.008 582.274 438.908 582.883 440.98L593.733 455.484L597.39 456.459C592.879 445.49 589.222 439.64 589.222 439.64C588.491 437.69 586.418 431.961 584.712 426.843C583.615 423.552 582.517 420.627 581.908 418.921C581.664 418.067 581.055 417.458 580.323 416.97C578.616 415.995 575.813 414.411 573.253 413.192C573.131 413.192 573.131 413.07 573.009 413.07C577.763 420.383 575.935 441.102 574.959 454.265Z" fill="#EDDAD3"/>
        <path d="M556.917 413.68C555.332 413.924 551.553 417.702 549.481 421.48C547.165 425.746 544.726 430.621 543.02 432.327C539.728 435.252 530.585 445.733 530.098 445.49C529.976 445.368 532.658 448.658 532.902 448.78C533.024 448.902 547.896 435.983 549.359 434.033C550.7 432.205 554.357 424.405 555.454 424.527C555.576 424.649 556.795 427.574 558.136 431.718C558.136 431.839 558.136 431.839 558.258 431.961C559.111 434.886 558.99 438.055 558.624 441.59C558.258 444.271 556.308 448.658 555.089 450.852C554.967 451.096 554.967 451.584 555.089 451.949C555.21 452.193 555.332 452.315 555.454 452.437L559.843 454.021L560.818 454.387C561.55 454.63 562.281 454.509 562.891 454.143C563.378 453.777 563.744 453.29 563.744 452.68C564.719 445.246 565.938 437.568 566.913 434.765C571.18 422.089 565.207 412.705 565.207 412.705C565.207 412.705 558.38 413.192 556.917 413.68Z" fill="#EDDAD3"/>
        <path d="M579.226 461.699L586.174 443.052L608.239 443.418L601.656 460.602L579.226 461.699Z" fill="#6E6760"/>
        <path d="M593.245 451.34C592.513 452.68 592.757 454.143 593.732 454.63C594.707 455.118 595.927 454.387 596.658 453.046C597.389 451.705 597.146 450.243 596.17 449.755C595.195 449.268 593.854 449.999 593.245 451.34Z" fill="#807066"/>
        <path d="M569.961 400.273C569.961 400.273 571.424 402.467 570.083 404.417C568.742 406.367 570.448 408.195 570.692 410.145C570.936 412.095 565.206 417.458 571.667 420.139C578.007 422.821 580.079 418.433 578.494 415.996C576.909 413.558 575.69 411.608 575.568 408.074C575.325 404.539 574.106 399.055 569.961 400.273Z" fill="#464240"/>
        <path d="M538.753 391.133H552.041V400.761V402.833L549.968 400.761H538.753V391.133Z" fill="#FFCB55"/>
        <path d="M463.902 539.213C463.902 539.213 434.889 566.879 449.03 588.329C463.171 609.78 469.754 591.011 469.754 591.011C469.754 591.011 479.263 593.936 465.121 567.366C458.417 554.813 463.902 539.213 463.902 539.213Z" fill="#BBD070"/>
        <path d="M410.264 509.231C410.264 509.231 388.077 535.313 417.7 571.388C447.323 607.464 442.813 626.598 442.813 626.598C442.813 626.598 484.017 563.832 410.264 509.231Z" fill="#97A43C"/>
        <path d="M449.518 615.63C463.293 618.433 452.2 578.335 431.475 566.026C410.751 553.838 392.222 552.619 380.641 540.797C380.641 540.919 381.494 601.979 449.518 615.63Z" fill="#48753A"/>
        <path d="M359.307 633.302C359.307 633.302 359.917 631.717 360.039 631.474C360.16 631.23 360.77 630.864 361.501 630.499C362.233 630.133 363.452 629.889 363.574 630.011C363.696 630.133 363.818 630.133 364.061 630.377C364.183 630.742 364.183 631.108 364.183 631.108C364.183 631.108 364.549 631.474 364.427 631.839C364.427 631.839 364.793 632.205 364.549 632.692C364.549 632.692 364.915 633.058 364.671 633.302C364.671 633.302 364.061 633.667 363.818 633.911C363.574 634.155 362.355 634.886 360.892 635.374C361.014 635.252 359.551 635.374 359.307 633.302Z" fill="#EEA886"/>
        <path d="M361.501 632.449C361.501 632.449 361.501 633.302 361.379 633.545C361.257 633.789 363.086 634.277 363.086 634.277C363.086 634.277 362.598 632.449 361.501 632.449Z" fill="#CF8C6C"/>
        <path d="M327.246 715.325L328.099 712.887L331.512 713.375L330.903 715.69L327.246 715.325Z" fill="#3B3F66"/>
        <path d="M355.04 715.081L355.284 716.422L358.941 715.812L358.819 713.74L355.04 715.081Z" fill="#555C94"/>
        <path d="M346.994 676.568C346.994 676.568 346.507 679.493 345.775 682.906C345.653 683.515 345.531 684.124 345.409 684.612C344.8 687.781 344.19 690.827 343.947 691.559C343.459 693.021 332 713.862 332 713.862C332 713.862 327.367 713.497 327.124 712.887C327.124 712.887 336.632 690.218 336.632 689.487C336.632 688.634 337.851 665.477 337.851 665.477C337.851 665.477 346.75 675.227 346.994 676.568Z" fill="#354C70"/>
        <path d="M352.236 664.015C352.236 664.015 356.747 686.806 357.113 688.512C357.478 690.218 359.185 713.618 359.185 713.618C359.185 713.618 358.21 715.69 354.431 714.959C354.431 714.959 349.432 689.853 348.945 688.999C347.238 685.709 339.192 669.987 338.461 667.671C337.729 665.355 337.851 662.796 337.851 662.796C337.851 662.796 343.947 659.383 352.236 664.015Z" fill="#354C70"/>
        <path d="M350.408 634.52C350.408 634.52 352.358 639.396 352.846 639.274C353.334 639.152 358.941 632.57 358.941 632.57C358.941 632.57 361.501 635.739 361.136 636.105C360.648 636.592 354.065 647.683 353.09 647.439C352.237 647.196 348.092 640.492 348.092 640.492C348.092 640.492 347.848 635.374 350.408 634.52Z" fill="#DEB135"/>
        <path d="M341.996 625.258C341.996 625.258 347.116 629.158 348.457 630.62C349.798 632.205 353.699 638.542 353.456 640.492C352.358 647.805 351.871 654.143 351.871 659.14C351.871 663.527 353.212 664.624 352.358 664.624C351.383 664.746 338.583 669.255 336.754 669.865C336.754 669.865 337.973 654.508 338.583 652.68C339.193 650.852 336.632 632.327 341.996 625.258Z" fill="#F2C344"/>
        <path d="M374.667 617.823L375.764 623.552L376.861 629.28C376.861 629.28 370.4 627.208 362.964 628.67L362.476 626.111L361.989 623.552C369.425 622.211 374.667 617.823 374.667 617.823Z" fill="#D9D0C4"/>
        <path d="M355.284 716.422C355.284 716.422 358.088 715.934 358.21 715.812C358.332 715.69 358.941 714.593 359.307 714.837C359.795 715.081 359.795 716.422 360.16 716.665C360.526 716.909 363.94 719.103 364.305 719.59C364.671 719.956 367.231 719.712 367.597 720.444C367.841 721.175 367.962 722.881 364.183 722.394C360.404 722.028 356.138 722.637 355.284 722.15C354.431 721.662 355.04 717.519 355.284 716.422Z" fill="#84BDFF"/>
        <path d="M327.246 715.325C327.246 715.325 330.049 715.203 330.171 715.203C330.293 715.081 331.025 714.106 331.39 714.35C331.756 714.593 331.634 715.934 332 716.178C332.366 716.422 335.291 719.225 335.657 719.712C336.023 720.2 338.583 720.322 338.705 721.053C338.827 721.784 338.583 723.491 334.926 722.516C331.269 721.54 326.88 721.419 326.148 720.809C325.539 720.322 326.758 716.3 327.246 715.325Z" fill="#84BDFF"/>
        <path d="M349.433 665.112C349.433 665.112 349.798 666.452 350.286 666.818C350.774 667.062 347.726 670.108 347.726 670.108C347.726 670.108 346.507 667.305 346.507 667.062C346.507 666.696 349.433 665.112 349.433 665.112Z" fill="#EEA987"/>
        <path d="M339.802 631.23C339.802 631.23 336.145 648.536 335.901 650.243C335.657 651.949 346.507 667.915 346.507 667.915L350.164 665.721C350.164 665.721 341.387 649.633 341.387 648.902C341.387 648.171 345.654 634.277 345.654 634.277C345.654 634.277 347.36 631.23 344.313 629.767C341.021 628.305 339.802 631.23 339.802 631.23Z" fill="#FFD255"/>
        <path d="M351.505 666.208C351.505 666.208 352.724 672.058 352.602 673.887C352.48 675.715 345.775 671.083 346.141 669.255L351.505 666.208Z" fill="#3C5780"/>
        <path d="M341.996 625.258C341.996 625.258 351.261 635.374 350.651 634.155C348.579 630.133 347.238 629.523 347.238 628.792C347.238 628.183 347.482 626.598 347.482 625.989C347.604 624.892 347.604 624.039 347.604 624.039C347.604 624.039 342.971 617.58 343.215 619.773C343.459 621.967 341.996 625.258 341.996 625.258Z" fill="#EEA886"/>
        <path d="M350.773 613.314C350.773 613.314 351.993 616.239 352.114 616.97C352.114 617.701 351.993 618.189 352.114 619.042C352.236 619.895 352.968 621.601 352.846 622.089C352.724 622.698 351.505 622.333 351.383 623.308C351.261 624.283 350.286 626.111 349.92 626.111C348.823 626.233 344.434 624.405 344.069 623.552C343.825 622.576 342.24 617.58 341.752 616.605C341.265 615.63 349.433 610.267 350.164 611.851C350.773 613.314 350.773 613.314 350.773 613.314Z" fill="#EEA886"/>
        <path d="M339.68 615.508C339.071 612.948 341.996 612.705 341.996 612.705C341.996 612.705 343.947 610.511 348.457 610.755C352.968 610.998 352.237 616.97 352.237 616.97C352.237 616.97 349.067 616.483 347.726 616.848C347.726 616.848 347.604 619.408 347.726 620.017L346.019 619.895C346.019 619.895 346.263 617.701 345.41 617.58C344.556 617.458 344.313 622.333 342.85 623.43C342.85 623.43 342.85 623.064 342.606 622.698C342.24 622.211 341.875 621.236 341.387 620.261C340.655 618.676 339.924 616.848 339.68 615.508Z" fill="#16202E"/>
        <path d="M346.507 618.067C346.507 618.067 345.897 616.361 344.312 617.458C343.215 618.311 344.312 621.114 345.41 621.114C346.507 621.114 346.994 619.53 346.507 618.067Z" fill="#EEA886"/>
        <path d="M343.703 622.698C343.703 622.698 343.947 623.552 344.191 623.795C344.434 624.039 345.531 624.892 347.604 625.623L347.482 627.452C347.36 627.452 343.459 625.989 343.703 622.698Z" fill="#C48A6F"/>
        <path d="M360.16 628.427H360.039V635.252H360.16V628.427Z" fill="#96CBFF"/>
        <path d="M360.283 628.427H360.161V635.252H360.283V628.427Z" fill="#95CAFF"/>
        <path d="M360.404 628.427H360.282V635.252H360.404V628.427Z" fill="#94C9FF"/>
        <path d="M360.404 628.427H360.282V635.252H360.404V628.427Z" fill="#93C9FF"/>
        <path d="M360.526 628.427H360.404V635.252H360.526V628.427Z" fill="#92C8FF"/>
        <path d="M360.526 628.427H360.404V635.252H360.526V628.427Z" fill="#91C7FF"/>
        <path d="M360.648 628.427H360.526V635.252H360.648V628.427Z" fill="#90C6FF"/>
        <path d="M360.648 628.427H360.526V635.252H360.648V628.427Z" fill="#8FC6FF"/>
        <path d="M360.77 628.427H360.648V635.252H360.77V628.427Z" fill="#8EC5FF"/>
        <path d="M360.892 628.427H360.77V635.252H360.892V628.427Z" fill="#8DC4FF"/>
        <path d="M360.892 628.427H360.77V635.252H360.892V628.427Z" fill="#8CC3FF"/>
        <path d="M361.014 628.427H360.892V635.252H361.014V628.427Z" fill="#8BC2FF"/>
        <path d="M361.014 628.427H360.892V635.252H361.014V628.427Z" fill="#8AC2FF"/>
        <path d="M361.136 628.427H361.014V635.252H361.136V628.427Z" fill="#89C1FF"/>
        <path d="M361.258 628.427H361.136V635.252H361.258V628.427Z" fill="#88C0FF"/>
        <path d="M361.258 628.427H361.136V635.252H361.258V628.427Z" fill="#87BFFF"/>
        <path d="M361.38 628.427H361.258V635.252H361.38V628.427Z" fill="#86BFFF"/>
        <path d="M361.38 628.427H361.258V635.252H361.38V628.427Z" fill="#85BEFF"/>
        <path d="M361.501 628.427H361.379V635.252H361.501V628.427Z" fill="#84BDFF"/>
        <path d="M361.501 628.427H361.379V635.252H361.501V628.427Z" fill="#83BCFF"/>
        <path d="M361.623 628.427H361.501V635.252H361.623V628.427Z" fill="#82BBFF"/>
        <path d="M361.745 628.427H361.624V635.252H361.745V628.427Z" fill="#81BBFF"/>
        <path d="M361.745 628.427H361.624V635.252H361.745V628.427Z" fill="#80BAFF"/>
        <path d="M361.867 628.427H361.745V635.252H361.867V628.427Z" fill="#7FB9FF"/>
        <path d="M361.867 628.427H361.745V635.252H361.867V628.427Z" fill="#7EB8FF"/>
        <path d="M361.989 628.427H361.867V635.252H361.989V628.427Z" fill="#7DB7FF"/>
        <path d="M362.111 628.427H361.989V635.252H362.111V628.427Z" fill="#7CB7FF"/>
        <path d="M362.111 628.427H361.989V635.252H362.111V628.427Z" fill="#7BB6FF"/>
        <path d="M362.233 628.427H362.111V635.252H362.233V628.427Z" fill="#7AB5FF"/>
        <path d="M362.233 628.427H362.111V635.252H362.233V628.427Z" fill="#79B4FF"/>
        <path d="M362.355 628.427H362.233V635.252H362.355V628.427Z" fill="#78B4FF"/>
        <path d="M362.355 628.427H362.233V635.252H362.355V628.427Z" fill="#77B3FF"/>
        <path d="M362.477 628.427H362.355V635.252H362.477V628.427Z" fill="#76B2FF"/>
        <path d="M362.598 628.427H362.477V635.252H362.598V628.427Z" fill="#74B1FF"/>
        <path d="M362.598 628.427H362.477V635.252H362.598V628.427Z" fill="#73B0FF"/>
        <path d="M362.721 628.427H362.599V635.252H362.721V628.427Z" fill="#72B0FF"/>
        <path d="M362.721 628.427H362.599V635.252H362.721V628.427Z" fill="#71AFFF"/>
        <path d="M362.843 628.427H362.721V635.252H362.843V628.427Z" fill="#70AEFF"/>
        <path d="M362.964 628.427H362.842V635.252H362.964V628.427Z" fill="#6FADFF"/>
        <path d="M362.964 628.427H362.842V635.252H362.964V628.427Z" fill="#6EADFF"/>
        <path d="M363.086 628.427H362.964V635.252H363.086V628.427Z" fill="#6DACFF"/>
        <path d="M363.086 628.427H362.964V635.252H363.086V628.427Z" fill="#6CABFF"/>
        <path d="M363.208 628.427H363.086V635.252H363.208V628.427Z" fill="#6BAAFF"/>
        <path d="M363.208 628.427H363.086V635.252H363.208V628.427Z" fill="#6AA9FF"/>
        <path d="M363.33 628.427H363.208V635.252H363.33V628.427Z" fill="#69A9FF"/>
        <path d="M363.452 628.427H363.33V635.252H363.452V628.427Z" fill="#68A8FF"/>
        <path d="M363.452 628.427H363.33V635.252H363.452V628.427Z" fill="#67A7FF"/>
        <path d="M363.574 628.427H363.452V635.252H363.574V628.427Z" fill="#66A6FF"/>
        <path d="M363.574 628.427H363.452V635.252H363.574V628.427Z" fill="#65A6FF"/>
        <path d="M363.696 628.427H363.574V635.252H363.696V628.427Z" fill="#64A5FF"/>
        <path d="M363.696 628.427H363.574V635.252H363.696V628.427Z" fill="#63A4FF"/>
        <path d="M363.818 628.427H363.696V635.252H363.818V628.427Z" fill="#62A3FF"/>
        <path d="M363.94 628.427H363.818V635.252H363.94V628.427Z" fill="#61A2FF"/>
        <path d="M363.94 628.427H363.818V635.252H363.94V628.427Z" fill="#60A2FF"/>
        <path d="M364.061 628.427H363.939V635.252H364.061V628.427Z" fill="#5FA1FF"/>
        <path d="M364.061 628.427H363.939V635.252H364.061V628.427Z" fill="#5EA0FF"/>
        <path d="M364.183 628.427H364.062V635.252H364.183V628.427Z" fill="#5D9FFF"/>
        <path d="M364.306 628.427H364.184V635.252H364.306V628.427Z" fill="#5C9EFF"/>
        <path d="M364.306 628.427H364.184V635.252H364.306V628.427Z" fill="#5B9EFF"/>
        <path d="M364.427 628.427H364.305V635.252H364.427V628.427Z" fill="#5A9DFF"/>
        <path d="M364.427 628.427H364.305V635.252H364.427V628.427Z" fill="#599CFF"/>
        <path d="M364.549 628.427H364.427V635.252H364.549V628.427Z" fill="#589BFF"/>
        <path d="M364.549 628.427H364.427V635.252H364.549V628.427Z" fill="#579BFF"/>
        <path d="M364.671 628.427H364.549V635.252H364.671V628.427Z" fill="#569AFF"/>
        <path d="M364.793 628.427H364.671V635.252H364.793V628.427Z" fill="#5599FF"/>
        <path d="M363.33 630.011C363.33 630.011 361.501 630.986 361.623 631.352C361.745 631.717 361.989 631.717 361.989 631.717L361.379 632.449C361.379 632.449 361.257 633.18 362.111 633.058C362.111 633.058 361.989 633.667 362.72 633.545C362.72 633.545 362.842 634.033 363.208 634.033C363.573 634.033 364.792 633.302 364.792 633.302C364.792 633.302 364.914 633.058 364.671 632.692C364.671 632.692 364.914 632.205 364.549 631.839C364.549 631.839 364.671 631.474 364.305 631.108C364.305 631.108 364.427 630.255 363.695 630.011C363.573 629.889 363.451 630.011 363.33 630.011Z" fill="#DB9C7C"/>
        <path d="M356.991 623.308H356.869V629.889H356.991V623.308Z" fill="#96CBFF"/>
        <path d="M357.113 623.308H356.991V629.889H357.113V623.308Z" fill="#95CAFF"/>
        <path d="M357.234 623.308H357.112V629.889H357.234V623.308Z" fill="#94C9FF"/>
        <path d="M357.356 623.308H357.234V629.889H357.356V623.308Z" fill="#93C9FF"/>
        <path d="M357.478 623.308H357.356V629.889H357.478V623.308Z" fill="#92C8FF"/>
        <path d="M357.6 623.308H357.478V629.889H357.6V623.308Z" fill="#91C7FF"/>
        <path d="M357.722 623.308H357.6V629.889H357.722V623.308Z" fill="#90C6FF"/>
        <path d="M357.844 623.308H357.722V629.889H357.844V623.308Z" fill="#8FC6FF"/>
        <path d="M357.966 623.308H357.844V629.889H357.966V623.308Z" fill="#8EC5FF"/>
        <path d="M358.088 623.308H357.966V629.889H358.088V623.308Z" fill="#8DC4FF"/>
        <path d="M358.21 623.308H358.088V629.889H358.21V623.308Z" fill="#8CC3FF"/>
        <path d="M358.331 623.308H358.209V629.889H358.331V623.308Z" fill="#8BC2FF"/>
        <path d="M358.453 623.308H358.332V629.889H358.453V623.308Z" fill="#8AC2FF"/>
        <path d="M358.576 623.308H358.454V629.889H358.576V623.308Z" fill="#89C1FF"/>
        <path d="M358.697 623.308H358.575V629.889H358.697V623.308Z" fill="#88C0FF"/>
        <path d="M358.819 623.308H358.697V629.889H358.819V623.308Z" fill="#87BFFF"/>
        <path d="M358.819 623.308H358.697V629.889H358.819V623.308Z" fill="#86BFFF"/>
        <path d="M358.941 623.308H358.819V629.889H358.941V623.308Z" fill="#85BEFF"/>
        <path d="M359.063 623.308H358.941V629.889H359.063V623.308Z" fill="#84BDFF"/>
        <path d="M359.185 623.308H359.063V629.889H359.185V623.308Z" fill="#83BCFF"/>
        <path d="M359.307 623.308H359.185V629.889H359.307V623.308Z" fill="#82BBFF"/>
        <path d="M359.429 623.308H359.307V629.889H359.429V623.308Z" fill="#81BBFF"/>
        <path d="M359.551 623.308H359.429V629.889H359.551V623.308Z" fill="#80BAFF"/>
        <path d="M359.673 623.308H359.551V629.889H359.673V623.308Z" fill="#7FB9FF"/>
        <path d="M359.794 623.308H359.672V629.889H359.794V623.308Z" fill="#7EB8FF"/>
        <path d="M359.916 623.308H359.794V629.889H359.916V623.308Z" fill="#7DB7FF"/>
        <path d="M360.038 623.308H359.917V629.889H360.038V623.308Z" fill="#7CB7FF"/>
        <path d="M360.16 623.308H360.038V629.889H360.16V623.308Z" fill="#7BB6FF"/>
        <path d="M360.282 623.308H360.16V629.889H360.282V623.308Z" fill="#7AB5FF"/>
        <path d="M360.404 623.308H360.282V629.889H360.404V623.308Z" fill="#79B4FF"/>
        <path d="M360.526 623.308H360.404V629.889H360.526V623.308Z" fill="#78B4FF"/>
        <path d="M360.648 623.308H360.526V629.889H360.648V623.308Z" fill="#77B3FF"/>
        <path d="M360.77 623.308H360.648V629.889H360.77V623.308Z" fill="#76B2FF"/>
        <path d="M360.891 623.308H360.77V629.889H360.891V623.308Z" fill="#74B1FF"/>
        <path d="M361.014 623.308H360.892V629.889H361.014V623.308Z" fill="#73B0FF"/>
        <path d="M361.014 623.308H360.892V629.889H361.014V623.308Z" fill="#72B0FF"/>
        <path d="M361.136 623.308H361.014V629.889H361.136V623.308Z" fill="#71AFFF"/>
        <path d="M361.257 623.308H361.135V629.889H361.257V623.308Z" fill="#70AEFF"/>
        <path d="M361.379 623.308H361.257V629.889H361.379V623.308Z" fill="#6FADFF"/>
        <path d="M361.501 623.308H361.379V629.889H361.501V623.308Z" fill="#6EADFF"/>
        <path d="M361.623 623.308H361.501V629.889H361.623V623.308Z" fill="#6DACFF"/>
        <path d="M361.745 623.308H361.623V629.889H361.745V623.308Z" fill="#6CABFF"/>
        <path d="M361.867 623.308H361.745V629.889H361.867V623.308Z" fill="#6BAAFF"/>
        <path d="M361.989 623.308H361.867V629.889H361.989V623.308Z" fill="#6AA9FF"/>
        <path d="M362.111 623.308H361.989V629.889H362.111V623.308Z" fill="#69A9FF"/>
        <path d="M362.233 623.308H362.111V629.889H362.233V623.308Z" fill="#68A8FF"/>
        <path d="M362.354 623.308H362.232V629.889H362.354V623.308Z" fill="#67A7FF"/>
        <path d="M362.476 623.308H362.354V629.889H362.476V623.308Z" fill="#66A6FF"/>
        <path d="M362.598 623.308H362.477V629.889H362.598V623.308Z" fill="#65A6FF"/>
        <path d="M362.72 623.308H362.598V629.889H362.72V623.308Z" fill="#64A5FF"/>
        <path d="M362.842 623.308H362.72V629.889H362.842V623.308Z" fill="#63A4FF"/>
        <path d="M362.964 623.308H362.842V629.889H362.964V623.308Z" fill="#62A3FF"/>
        <path d="M363.086 623.308H362.964V629.889H363.086V623.308Z" fill="#61A2FF"/>
        <path d="M363.208 623.308H363.086V629.889H363.208V623.308Z" fill="#60A2FF"/>
        <path d="M363.329 623.308H363.208V629.889H363.329V623.308Z" fill="#5FA1FF"/>
        <path d="M363.329 623.308H363.208V629.889H363.329V623.308Z" fill="#5EA0FF"/>
        <path d="M363.452 623.308H363.33V629.889H363.452V623.308Z" fill="#5D9FFF"/>
        <path d="M363.574 623.308H363.452V629.889H363.574V623.308Z" fill="#5C9EFF"/>
        <path d="M363.696 623.308H363.574V629.889H363.696V623.308Z" fill="#5B9EFF"/>
        <path d="M363.817 623.308H363.695V629.889H363.817V623.308Z" fill="#5A9DFF"/>
        <path d="M363.939 623.308H363.817V629.889H363.939V623.308Z" fill="#599CFF"/>
        <path d="M364.061 623.308H363.939V629.889H364.061V623.308Z" fill="#589BFF"/>
        <path d="M364.183 623.308H364.061V629.889H364.183V623.308Z" fill="#579BFF"/>
        <path d="M364.305 623.308H364.183V629.889H364.305V623.308Z" fill="#569AFF"/>
        <path d="M364.427 623.308H364.305V629.889H364.427V623.308Z" fill="#5599FF"/>
        <path d="M360.038 631.352C360.038 631.352 361.501 631.352 362.233 631.595C362.354 631.717 362.598 631.717 362.598 631.961C362.598 632.205 362.354 632.449 361.745 632.449C361.135 632.449 360.282 632.814 360.282 632.814C360.282 632.814 359.673 632.814 360.038 631.352Z" fill="#EEA886"/>
        <path d="M345.897 682.906C345.776 683.515 345.654 684.124 345.532 684.612L341.875 674.862C342.362 675.837 345.897 682.906 345.897 682.906Z" fill="#293B57"/>
        <path d="M142.558 566.391H84.1648C79.8981 566.391 76.3628 562.857 76.3628 558.591V466.574C76.3628 462.309 79.8981 458.774 84.1648 458.774H142.436C146.703 458.774 150.238 462.309 150.238 466.574V558.591C150.36 562.857 146.825 566.391 142.558 566.391Z" fill="#FFBF36"/>
        <path d="M142.436 528.244H138.657V557.372H142.436V528.244Z" fill="#E3F2FF"/>
        <path d="M134.878 531.535H131.099V557.372H134.878V531.535Z" fill="#E3F2FF"/>
        <path d="M126.588 535.678H122.809V557.251H126.588V535.678Z" fill="#E3F2FF"/>
        <path d="M118.177 541.041H114.397V557.251H118.177V541.041Z" fill="#E3F2FF"/>
        <path d="M91.6009 537.628L90.7476 537.385L97.94 517.031L113.666 512.887L119.274 490.706L131.342 485.343L134.024 468.159L134.878 468.281L132.074 485.953L120.005 491.315L114.397 513.619L98.6715 517.763L91.6009 537.628Z" fill="#E3F2FF"/>
        <path d="M115.86 511.791C116.714 512.766 116.592 514.228 115.495 515.081C114.519 515.934 113.056 515.812 112.203 514.716C111.35 513.741 111.472 512.278 112.569 511.425C113.544 510.694 115.007 510.816 115.86 511.791Z" fill="#FFC955"/>
        <path d="M115.738 515.447C114.519 516.422 112.812 516.3 111.837 515.081C110.862 513.862 110.984 512.156 112.203 511.181C113.422 510.206 115.129 510.328 116.104 511.547C117.079 512.766 116.957 514.472 115.738 515.447ZM112.812 511.791C111.959 512.4 111.837 513.619 112.569 514.472C113.178 515.325 114.397 515.447 115.251 514.716C116.104 514.106 116.226 512.887 115.494 512.034C114.763 511.303 113.544 511.181 112.812 511.791Z" fill="#E3F2FF"/>
        <path d="M121.468 489.731C122.322 490.706 122.2 492.168 121.102 493.021C120.127 493.875 118.664 493.753 117.811 492.656C116.958 491.681 117.08 490.218 118.177 489.365C119.152 488.512 120.737 488.634 121.468 489.731Z" fill="#FFC955"/>
        <path d="M121.468 493.387C120.249 494.362 118.542 494.24 117.567 493.021C116.592 491.803 116.714 490.096 117.933 489.121C119.152 488.146 120.859 488.268 121.834 489.487C122.809 490.584 122.687 492.412 121.468 493.387ZM118.421 489.731C117.567 490.34 117.445 491.559 118.177 492.412C118.786 493.265 120.005 493.387 120.859 492.656C121.712 492.046 121.834 490.828 121.102 489.975C120.493 489.121 119.274 489 118.421 489.731Z" fill="#E3F2FF"/>
        <path d="M133.415 484.246C134.268 485.221 134.146 486.684 133.049 487.537C132.074 488.39 130.611 488.268 129.758 487.171C128.904 486.196 129.026 484.734 130.123 483.881C131.099 483.028 132.562 483.15 133.415 484.246Z" fill="#FFC955"/>
        <path d="M133.293 487.903C132.074 488.878 130.367 488.756 129.392 487.537C128.417 486.318 128.539 484.612 129.758 483.637C130.977 482.662 132.683 482.784 133.659 484.003C134.756 485.1 134.512 486.928 133.293 487.903ZM130.367 484.246C129.514 484.856 129.392 486.075 130.123 486.928C130.733 487.781 131.952 487.903 132.805 487.172C133.659 486.562 133.78 485.343 133.049 484.49C132.44 483.637 131.22 483.515 130.367 484.246Z" fill="#E3F2FF"/>
        <path d="M100.256 516.178C101.11 517.153 100.988 518.616 99.8905 519.469C98.9153 520.322 97.4524 520.2 96.5991 519.103C95.7457 518.128 95.8676 516.666 96.9648 515.812C97.94 514.959 99.4029 515.203 100.256 516.178Z" fill="#FFC955"/>
        <path d="M100.135 519.834C98.9156 520.809 97.2089 520.688 96.2337 519.469C95.2584 518.25 95.3803 516.544 96.5994 515.569C97.8184 514.594 99.5251 514.716 100.5 515.934C101.476 517.031 101.354 518.859 100.135 519.834ZM97.2089 516.178C96.3556 516.787 96.2337 518.006 96.9651 518.859C97.5746 519.713 98.7937 519.834 99.647 519.103C100.5 518.494 100.622 517.275 99.8908 516.422C99.1594 515.569 97.9403 515.569 97.2089 516.178Z" fill="#E3F2FF"/>
        <path d="M106.108 494.118H85.9933C85.0181 494.118 84.2866 493.387 84.2866 492.412V490.95C84.2866 489.975 85.0181 489.243 85.9933 489.243H106.108C107.083 489.243 107.815 489.975 107.815 490.95V492.412C107.815 493.387 107.083 494.118 106.108 494.118Z" fill="#EBEBEB"/>
        <path d="M106.108 485.587H85.9933C85.0181 485.587 84.2866 484.856 84.2866 483.881V482.418C84.2866 481.443 85.0181 480.712 85.9933 480.712H106.108C107.083 480.712 107.815 481.443 107.815 482.418V483.881C107.815 484.856 107.083 485.587 106.108 485.587Z" fill="#EBEBEB"/>
        <path d="M67.3417 498.018C67.3417 498.018 66.6103 504.722 67.9513 506.428C67.9513 506.428 64.6598 505.697 63.9284 504.6C63.1969 503.503 67.3417 498.018 67.3417 498.018Z" fill="#16202E"/>
        <path d="M87.9438 519.469C87.9438 519.469 89.1628 518.616 89.2847 518.494C89.5285 518.372 90.1381 518.372 90.7476 518.494C91.479 518.616 92.3324 518.981 92.4543 519.103C92.4543 519.225 92.5762 519.347 92.5762 519.591C92.5762 519.956 92.3324 520.078 92.3324 520.078C92.3324 520.078 92.4543 520.444 92.2105 520.809C92.2105 520.809 92.3324 521.175 91.9667 521.419C91.9667 521.419 92.0886 521.784 91.7229 521.906C91.7229 521.906 91.1133 521.906 90.8695 521.906C90.6257 521.906 89.4066 521.784 88.1876 521.541C88.1876 521.784 86.8466 521.541 87.9438 519.469Z" fill="#EEA886"/>
        <path d="M90.0163 520.078C90.0163 520.078 89.6506 520.688 89.4068 520.809C89.1629 520.931 90.382 522.15 90.382 522.15C90.382 522.15 90.7477 520.566 90.0163 520.078Z" fill="#CF8C6C"/>
        <path d="M87.2126 519.591C87.2126 519.591 87.944 519.469 88.4317 519.347C88.9193 519.103 88.3098 521.663 88.3098 521.663C88.3098 521.663 87.2126 520.931 86.4812 520.809C85.7497 520.809 87.2126 519.591 87.2126 519.591Z" fill="#EEA886"/>
        <path d="M56.1264 587.598C56.1264 587.598 58.4426 591.01 59.2959 591.742C59.2959 591.742 60.8807 592.595 61.0026 593.326C61.1245 594.667 61.1245 595.398 59.0521 595.398C56.8578 595.398 55.5168 595.398 55.1511 594.057C54.7854 592.717 54.0539 591.742 54.0539 591.742L53.932 595.154H53.4444C53.4444 595.154 53.2006 591.742 53.2006 591.254C53.2006 590.767 52.8349 588.938 53.932 588.085C54.7854 587.232 56.1264 587.598 56.1264 587.598Z" fill="#162D40"/>
        <path d="M59.5396 591.985C59.5396 591.985 58.3206 592.351 56.9796 591.985C55.6386 591.62 54.2977 588.329 53.8101 588.085L53.4443 586.745H56.1263C56.1263 586.745 56.1263 587.72 56.6139 588.573C57.1015 589.304 59.5396 591.985 59.5396 591.985Z" fill="#162D40"/>
        <path d="M71.3645 586.257C71.3645 586.257 71.7303 587.11 72.3398 587.964C72.8274 588.573 74.2903 591.254 75.0217 591.376C75.6313 591.498 77.7037 591.864 77.9475 593.082C78.0694 594.179 78.1913 595.032 76.2408 595.154C74.1684 595.276 72.8274 595.398 71.8522 593.935C70.8769 592.473 69.2921 591.498 69.2921 591.498V595.276H68.5607C68.5607 595.276 68.195 591.376 67.9512 591.132C67.7073 590.889 67.2197 587.842 69.0483 586.379C70.9988 584.795 71.3645 586.257 71.3645 586.257Z" fill="#162D40"/>
        <path d="M75.0216 591.498C75.0216 591.498 73.193 591.985 72.4615 591.498C71.7301 591.01 69.4139 586.989 68.5605 586.745C68.5605 586.745 69.292 585.16 71.2425 586.379C71.3644 586.257 74.534 590.767 75.0216 591.498Z" fill="#162D40"/>
        <path d="M55.029 530.56C55.029 530.56 52.469 533.85 51.7376 537.872C51.0061 541.772 52.1033 555.179 52.1033 557.129C52.1033 559.079 50.3966 565.173 50.7623 568.829C51.128 572.485 53.0785 587.842 53.0785 587.842L57.4672 587.72C57.4672 587.72 56.6138 571.145 56.8576 569.56C57.1014 567.976 57.8329 561.394 57.9548 560.785C58.0767 560.176 63.0748 543.357 63.0748 540.432C62.9529 537.75 61.2462 525.928 55.029 530.56Z" fill="#1D3B54"/>
        <path d="M67.951 531.9C67.951 531.9 72.2177 547.988 72.7054 550.182C73.193 552.376 74.1682 555.301 74.1682 555.788C74.1682 556.154 73.6806 563.101 73.6806 563.101L72.4615 586.501H68.0729C68.0729 586.501 66.6101 571.632 66.3662 568.585C66.1224 565.538 67.951 560.907 67.5853 559.688C67.0977 558.469 60.2709 543.722 60.2709 543.722C60.2709 543.722 55.029 527.269 67.951 531.9Z" fill="#1D3B54"/>
        <path d="M66.6102 507.769C66.6102 507.769 68.3169 507.89 69.536 509.353C70.755 510.694 71.9741 512.887 72.3398 513.619C72.7055 514.35 77.338 521.053 77.5818 521.297C77.8256 521.419 79.898 520.931 81.4828 520.809C84.1647 520.566 88.1876 519.225 88.1876 519.225L88.7971 522.272C88.7971 522.272 78.9227 525.441 76.7284 524.831C73.9246 524.1 67.5855 515.934 67.5855 515.934C67.5855 515.934 62.8311 510.328 66.6102 507.769Z" fill="#EDDAD3"/>
        <path d="M63.6846 506.672C63.6846 506.672 65.8789 507.647 66.6104 507.891C67.3418 508.012 70.2675 511.912 70.8771 513.253C71.3647 514.594 70.8771 516.787 69.7799 519.225C68.6828 521.663 69.7799 522.516 69.2923 524.953C68.8047 527.391 68.8047 534.094 68.9266 535.435C69.0485 536.775 54.9074 539.335 52.1035 536.897C52.1035 536.897 54.054 530.56 56.2483 528.244C56.736 527.756 56.7359 524.344 56.3702 523.491C56.0045 522.638 52.2254 516.3 52.2254 516.3C52.2254 516.3 51.9816 509.841 53.5664 508.622C55.0293 507.525 58.9303 507.159 59.5398 506.915C60.2712 506.55 62.3436 506.428 63.6846 506.672Z" fill="#EDDAD3"/>
        <path d="M64.4159 511.547L65.7569 509.962L64.6597 505.819C64.6597 505.819 64.1721 508.134 64.4159 511.547Z" fill="#D1C0BA"/>
        <path d="M56.1262 507.769C56.1262 507.769 53.3224 507.037 51.7376 509.962C50.1528 513.009 50.5185 514.594 50.1528 516.056C49.7871 517.397 48.3242 526.538 48.2023 526.903C48.0804 527.269 46.7394 531.9 46.8613 533.363C46.9832 534.825 48.3242 545.55 48.3242 545.916C48.3242 546.282 50.8842 545.55 50.8842 545.55C50.8842 545.55 50.7623 534.582 50.8842 533.606C51.0061 532.753 51.0062 527.878 51.7376 526.66C52.469 525.441 54.0538 517.884 54.4195 517.153C54.9071 516.544 58.4424 508.744 56.1262 507.769Z" fill="#EEA886"/>
        <path d="M64.7815 504.112C64.7815 504.112 64.2939 508.134 64.4158 509.475C64.4158 509.475 62.0996 511.791 59.5396 506.794C59.5396 506.794 60.6367 504.722 59.7834 502.04C59.0519 499.237 64.7815 504.112 64.7815 504.112Z" fill="#EEA886"/>
        <path d="M64.4162 509.475V511.547L61.978 509.353L64.4162 509.475Z" fill="#EEA886"/>
        <path d="M64.4161 511.547L63.319 510.206L59.6618 506.55L58.3208 507.159L64.4161 511.547Z" fill="#D1C0BA"/>
        <path d="M65.7568 509.962L67.4635 510.45L64.6597 505.819L65.7568 509.962Z" fill="#FAE6DE"/>
        <path d="M63.319 510.206L61.8561 512.644L58.3208 507.037L59.7837 506.306L63.319 510.206Z" fill="#FAE6DE"/>
        <path d="M71.1206 520.078C71.1206 520.078 71.6082 516.422 71.1206 514.228C71.1206 514.228 70.7549 516.056 70.0234 518.738L71.1206 520.078Z" fill="#D1C0BA"/>
        <path d="M54.1758 519.591C54.1758 519.591 55.6387 514.594 55.7606 514.35C55.7606 514.35 55.6387 518.981 55.0291 521.175C55.0291 521.175 54.5415 520.2 54.1758 519.591Z" fill="#D1C0BA"/>
        <path d="M110.375 494.484L86.603 524.466L87.4564 525.075L110.375 494.484Z" fill="#54281A"/>
        <path d="M92.3326 519.225C92.3326 519.225 90.504 519.103 90.504 519.347C90.3821 519.591 90.6259 519.713 90.6259 519.713L89.8945 519.956C89.8945 519.956 89.5287 520.444 90.1383 520.688C90.1383 520.688 89.7725 521.053 90.3821 521.297C90.3821 521.297 90.2602 521.663 90.504 521.784C90.7478 521.906 91.9669 522.028 91.9669 522.028C91.9669 522.028 92.2107 521.906 92.2107 521.541C92.2107 521.541 92.5764 521.297 92.4545 520.931C92.4545 520.931 92.6983 520.688 92.5764 520.2C92.5764 520.2 93.1859 519.591 92.6983 519.103C92.4545 519.225 92.3326 519.225 92.3326 519.225Z" fill="#DB9C7C"/>
        <path d="M89.4069 518.616C89.4069 518.616 90.5041 519.225 90.8698 519.834C90.9917 519.956 90.9917 520.078 90.9917 520.2C90.8698 520.322 90.626 520.322 90.1383 520.078C89.6507 519.834 88.9193 519.713 88.9193 519.713C88.9193 519.713 88.4316 519.347 89.4069 518.616Z" fill="#EEA886"/>
        <path d="M62.9532 490.462C62.9532 490.462 66.9761 490.34 67.7075 495.093C68.439 499.847 66.7323 503.99 66.1228 504.722C65.3913 505.453 61.4903 504.844 60.5151 502.406C59.5398 499.969 58.1989 498.14 58.4427 495.947C58.4427 493.875 57.955 490.34 62.9532 490.462Z" fill="#EEA886"/>
        <path d="M67.8292 496.922C67.8292 496.922 68.9264 490.95 63.5625 489.975C58.1987 488.878 56.3701 492.534 55.8824 494.728C55.3948 496.922 56.0043 503.015 56.0043 503.015C56.0043 503.015 59.5396 506.184 61.7339 506.915C61.7339 506.915 59.9053 500.456 60.6368 495.703C60.6368 495.703 65.0254 496.434 67.8292 495.703C67.8292 495.703 67.8292 496.678 67.8292 496.922Z" fill="#16202E"/>
        <path d="M64.6596 504.965C64.6596 504.965 63.3187 504.965 61.3682 503.747C61.3682 503.747 62.7091 505.453 64.5377 506.062C64.5377 506.062 64.6596 505.209 64.6596 504.965Z" fill="#A77860"/>
        <path d="M56.6864 535.706L41.1665 538.24L43.0334 549.667L58.5533 547.133L56.6864 535.706Z" fill="#366E9C"/>
        <path d="M47.8369 549.45C47.8369 549.45 47.5931 549.085 47.5931 548.841C47.5931 548.841 47.5931 548.475 47.5931 548.11C47.5931 547.988 47.5931 547.988 47.5931 547.866C47.5931 547.622 47.3492 547.135 47.4711 546.647C47.4711 546.038 48.2026 543.722 48.2026 543.722H49.5436L50.8845 543.6C50.8845 543.6 52.4693 546.525 52.4693 547.135V547.257C52.4693 547.744 52.2255 547.988 52.2255 548.232C52.2255 548.354 51.9817 549.085 51.7379 549.207C51.3721 549.329 51.1283 549.329 50.8845 549.207C50.8845 549.207 50.275 549.45 49.7874 549.329C49.7874 549.329 49.1778 549.572 48.6902 549.329C48.8121 549.572 48.2026 549.816 47.8369 549.45Z" fill="#EEA886"/>
        <path d="M56.1264 507.769C56.1264 507.769 53.3225 507.037 51.7377 509.962C50.153 513.009 50.153 514.35 49.9091 515.812C49.6653 517.153 47.8367 525.563 47.7148 525.928C47.5929 526.294 46.9834 531.535 46.9834 533.363C46.9834 534.825 47.2272 544.21 47.2272 544.575C47.2272 544.941 51.6158 543.966 51.6158 543.966C51.6158 543.966 51.1282 535.313 51.2501 534.338C51.372 533.485 51.4939 528.853 51.9815 527.513C52.4692 525.928 54.5416 518.006 54.9073 517.275C55.273 516.666 58.4426 508.744 56.1264 507.769Z" fill="#EDDAD3"/>
        <path d="M198.391 589.548L198.635 586.867C198.635 586.867 194.855 586.867 194.49 587.11C194.49 587.11 194.855 589.304 194.855 589.67C194.977 590.035 198.391 589.548 198.391 589.548Z" fill="#5C544D"/>
        <path d="M192.052 595.032C196.562 595.032 198.635 595.276 199.122 594.545C199.61 593.814 198.391 589.182 198.391 589.182C198.391 589.182 197.294 589.548 194.734 589.304C194.734 589.304 193.636 590.645 192.539 591.254C191.442 591.864 189.735 592.107 189.126 592.717C188.76 593.204 187.541 595.154 192.052 595.032Z" fill="#3C4145"/>
        <path d="M173.278 589.548L173.522 586.867C173.522 586.867 169.743 586.867 169.377 587.11C169.377 587.11 169.743 589.304 169.743 589.67C169.743 590.035 173.278 589.548 173.278 589.548Z" fill="#5C544D"/>
        <path d="M166.817 595.032C171.328 594.911 173.4 595.276 173.888 594.545C174.376 593.814 173.156 589.182 173.156 589.182C173.156 589.182 172.181 589.548 169.499 589.304C169.499 589.304 168.402 590.645 167.305 591.254C166.208 591.864 162.307 592.351 161.575 592.961C161.332 593.448 160.6 595.276 166.817 595.032Z" fill="#3C4145"/>
        <path d="M193.271 529.341C193.271 529.341 195.099 534.947 194.855 539.7C194.612 544.454 195.831 549.694 196.318 554.691C196.928 560.298 199.122 573.46 199.244 576.507C199.366 579.432 198.878 589.06 198.878 589.06L194.368 589.182C194.368 589.182 190.589 566.148 189.614 563.71C188.638 561.394 183.762 544.575 183.518 542.625C183.396 540.675 193.271 529.341 193.271 529.341Z" fill="#DBD8E3"/>
        <path d="M174.253 530.316C174.253 530.316 171.815 543.479 171.45 546.404C171.084 549.329 170.962 560.541 170.718 562.369C170.596 564.198 169.621 586.379 168.768 589.06H174.619C174.619 589.06 179.008 572.973 179.008 565.295C179.008 557.616 182.421 548.719 184.615 543.722C186.81 538.725 191.93 538.604 193.271 529.219C193.271 529.341 176.082 527.269 174.253 530.316Z" fill="#DBD8E3"/>
        <path d="M185.956 485.343C185.956 485.343 181.446 483.637 179.252 487.172C177.179 490.706 177.301 497.653 179.617 498.506C181.934 499.359 185.347 498.872 186.566 496.8C187.785 494.606 188.76 491.437 188.76 489.365C188.76 487.172 187.176 485.953 185.956 485.343Z" fill="#EEA886"/>
        <path d="M180.471 498.262C180.471 498.262 180.715 499.481 180.349 500.09C179.983 500.7 186.078 500.7 186.078 500.7C186.078 500.7 186.566 497.531 187.541 494.728C188.517 492.047 180.471 498.262 180.471 498.262Z" fill="#EEA886"/>
        <path d="M187.541 494.728C187.541 494.728 187.175 495.459 185.469 495.094C183.762 494.85 181.69 492.534 180.958 492.29C180.227 492.047 180.227 491.681 180.227 491.681L179.739 492.29H179.008C179.008 492.29 179.739 490.218 178.642 489.487C177.545 488.634 179.739 482.906 185.225 484.856C185.225 484.856 189.126 485.587 189.37 488.025C189.614 490.584 188.516 493.509 187.541 494.728Z" fill="#FCCCA2"/>
        <path d="M179.983 499.969C179.983 499.969 179.983 498.872 180.471 498.75C180.958 498.628 186.078 498.14 186.688 498.384V499.725C186.81 499.725 185.591 500.456 179.983 499.969Z" fill="#E2D2CA"/>
        <path d="M180.349 490.828C180.471 490.462 181.446 489.243 181.812 490.462C182.178 491.681 181.202 493.387 180.715 493.143C180.105 493.143 180.105 491.803 180.349 490.828Z" fill="#EEA886"/>
        <path d="M179.983 499.969C179.983 499.969 177.179 500.944 173.888 502.406C173.888 502.406 170.109 503.747 169.743 507.891C169.499 510.084 167.183 521.784 166.695 522.759C166.208 523.734 161.088 539.578 160.844 539.944C160.722 540.31 165.111 542.138 165.354 542.016C165.598 541.894 170.352 527.513 170.84 526.538C170.84 526.538 173.522 518.006 173.644 516.666C173.644 516.666 173.766 520.322 173.888 521.297C174.01 522.272 171.45 542.138 171.572 542.747C171.693 543.357 183.275 543.966 187.907 543.479C192.539 542.991 196.318 541.894 196.318 541.894C196.318 541.894 192.661 526.172 192.783 524.466C193.027 520.688 194.246 513.497 194.246 513.497L198.025 520.566L193.149 532.997L194.246 536.775C194.246 536.775 203.267 523.125 203.511 521.906C203.755 520.688 203.023 519.103 202.536 518.006C202.048 517.031 199 509.231 198.269 508.134C197.538 507.037 196.318 502.65 193.271 501.431C190.833 500.456 186.566 499.603 186.566 499.603L179.983 499.969Z" fill="#63A4FF"/>
        <path d="M177.511 532.287L156.373 526.868L152.587 541.626L173.726 547.045L177.511 532.287Z" fill="#F25F54"/>
        <path d="M159.137 543.113C159.137 543.113 158.528 544.088 158.284 544.332C158.04 544.575 158.772 544.819 159.137 544.454C159.503 544.21 159.137 543.113 159.137 543.113Z" fill="#C98462"/>
        <path d="M163.526 546.404C163.526 546.404 163.892 546.038 164.014 545.794C164.014 545.794 164.136 545.307 164.257 545.063C164.257 544.941 164.257 544.819 164.379 544.819C164.501 544.575 164.745 544.088 164.867 543.479C164.989 542.869 165.233 540.188 165.233 540.188L163.648 539.822L162.307 539.578C162.307 539.578 159.503 542.382 159.259 542.991V543.113C159.137 543.6 159.259 543.966 159.259 544.21C159.259 544.332 159.259 545.307 159.503 545.429C159.869 545.672 160.113 545.672 160.356 545.672C160.356 545.672 160.966 546.16 161.454 546.038C161.454 546.038 162.063 546.525 162.673 546.282C162.551 546.282 163.16 546.647 163.526 546.404Z" fill="#DE9D7D"/>
        <path d="M169.987 529.341C169.987 529.341 166.208 540.675 165.476 541.894C165.476 541.894 162.673 541.285 160.966 539.822L165.111 527.513L169.987 529.341Z" fill="#63A4FF"/>
        <path d="M509.373 547.135C509.373 547.135 523.392 506.184 496.695 493.509C469.998 480.834 447.445 499.115 443.178 509.109C438.912 518.981 440.009 537.141 443.666 549.694C447.323 562.248 446.835 581.504 438.912 587.842C430.988 594.301 421.113 604.904 421.601 626.598C421.845 640.005 474.508 592.229 474.508 592.229L509.373 547.135Z" fill="#252E3B"/>
        <path d="M471.826 595.764C471.826 595.764 449.883 600.639 441.228 605.758C432.573 610.876 413.189 634.155 413.189 644.271C413.189 654.265 497.67 663.649 497.67 663.649L513.64 722.028C513.64 722.028 556.307 711.668 561.427 703.015C566.547 694.362 545.214 632.449 541.557 620.017C537.899 607.22 522.539 598.323 504.741 595.886C487.065 593.326 471.826 595.764 471.826 595.764Z" fill="#63A4FF"/>
        <path d="M503.278 595.52C503.278 595.52 502.791 622.089 481.701 622.942C460.611 623.673 465 597.47 465 597.47C465 597.47 480.482 591.254 503.278 595.52Z" fill="#EEA886"/>
        <path d="M512.299 515.325C512.299 515.325 519.735 558.104 498.524 589.06C476.459 620.992 512.299 515.325 512.299 515.325Z" fill="#252E3B"/>
        <path d="M498.767 576.751C498.767 576.751 497.305 589.426 499.743 597.348C502.181 605.27 467.438 605.514 467.438 598.932C467.438 591.498 470.973 585.404 467.681 572.729C464.39 560.054 498.767 576.751 498.767 576.751Z" fill="#EEA886"/>
        <path d="M471.826 578.335C471.826 578.335 482.798 589.792 496.817 579.554C496.817 579.554 495.598 586.867 485.602 587.842C475.483 588.817 471.826 578.335 471.826 578.335Z" fill="#A77860"/>
        <path d="M485.602 500.456C485.602 500.456 513.274 508.622 509.373 547.135C505.472 585.526 487.308 583.576 485.602 583.942C483.895 584.185 462.44 585.648 455.613 538.969C448.786 492.168 485.602 500.456 485.602 500.456Z" fill="#EEA886"/>
        <path d="M478.409 517.519C478.409 517.519 493.526 541.529 509.373 547.013C509.373 547.013 518.029 506.794 482.31 498.384C446.592 489.975 452.199 538.969 454.881 552.01C454.759 552.132 462.196 532.875 478.409 517.519Z" fill="#252E3B"/>
        <path d="M458.173 513.984C458.173 513.984 466.097 498.628 479.506 497.897C492.916 497.165 500.84 508.866 500.84 508.866C500.84 508.866 495.598 495.825 479.506 495.825C463.415 495.825 458.173 513.984 458.173 513.984Z" fill="#88C0FF"/>
        <path d="M512.665 634.642L522.052 722.028H398.439L389.052 634.642H512.665Z" fill="url(#paint5_linear_550_715)"/>
        <path d="M519.126 718.981H394.294L384.785 630.499H509.617L519.126 718.981ZM395.269 718.006H517.907L508.642 631.717H386.004L395.269 718.006Z" fill="url(#paint6_linear_550_715)"/>
        <path d="M463.293 676.934C464.39 682.418 461.83 687.537 457.685 688.39C453.418 689.243 449.152 685.587 448.055 680.102C446.957 674.618 449.518 669.499 453.662 668.646C457.807 667.793 462.074 671.449 463.293 676.934Z" fill="#FFD255"/>
        <path d="M438.668 459.749C428.184 459.749 419.65 451.218 419.65 440.737C419.65 430.255 428.184 421.724 438.668 421.724C449.152 421.724 457.685 430.255 457.685 440.737C457.685 451.218 449.152 459.749 438.668 459.749ZM438.668 422.821C428.793 422.821 420.748 430.865 420.748 440.737C420.748 450.609 428.793 458.652 438.668 458.652C448.542 458.652 456.588 450.609 456.588 440.737C456.588 430.865 448.542 422.821 438.668 422.821Z" fill="url(#paint7_linear_550_715)"/>
        <path d="M103.06 653.168V651.583C106.23 651.583 109.521 651.461 112.691 651.339L112.813 652.924C109.521 653.046 106.23 653.168 103.06 653.168ZM93.3077 653.046C90.1382 652.924 86.8467 652.802 83.5552 652.558L83.6771 650.974C86.9686 651.218 90.1382 651.339 93.3077 651.461V653.046ZM122.443 652.314L122.321 650.73C125.491 650.486 128.782 650.121 131.952 649.755L132.196 651.339C128.904 651.583 125.613 651.949 122.443 652.314ZM73.8027 651.827C70.5113 651.461 67.2198 651.096 64.1721 650.608L64.416 649.024C67.4636 649.511 70.7551 649.999 73.9246 650.243L73.8027 651.827ZM141.826 649.755L141.583 648.171C144.752 647.683 147.922 647.074 151.091 646.343L151.457 647.927C148.165 648.658 144.874 649.268 141.826 649.755ZM54.6635 648.658C51.372 647.927 48.2024 646.952 45.2767 645.977L45.7643 644.392C48.6901 645.368 51.7377 646.342 55.0292 647.074L54.6635 648.658ZM160.844 645.855L160.478 644.271C163.404 643.539 166.573 642.808 169.865 641.833L170.23 643.417C166.939 644.392 163.769 645.124 160.844 645.855ZM36.1337 642.321C33.0861 640.858 30.2822 639.274 27.6003 637.567L28.4536 636.227C31.0137 637.933 33.8175 639.517 36.7433 640.98L36.1337 642.321ZM179.617 640.98L179.13 639.396C180.471 639.03 181.812 638.664 183.153 638.299C184.981 637.811 186.688 637.324 188.516 636.836L189.004 638.421C187.297 638.908 185.469 639.396 183.64 639.883C182.299 640.127 180.958 640.492 179.617 640.98ZM263.976 639.517C261.051 638.055 258.003 636.836 255.077 635.861L255.565 634.277C258.491 635.374 261.538 636.592 264.586 638.055L263.976 639.517ZM198.269 635.739L197.903 634.155C201.438 633.302 204.486 632.57 207.412 631.961L207.778 633.545C204.852 634.155 201.804 634.886 198.269 635.739ZM245.812 633.18C242.643 632.449 239.473 631.961 236.304 631.595L236.426 630.011C239.595 630.377 242.887 630.864 246.056 631.595L245.812 633.18ZM217.164 631.961L216.921 630.377C220.334 629.889 223.503 629.645 226.673 629.645V631.23C223.747 631.352 220.578 631.595 217.164 631.961ZM19.9202 631.352C17.4821 629.158 15.2878 626.598 13.3373 624.039L14.6782 623.064C16.5068 625.623 18.7011 627.939 21.0174 630.133L19.9202 631.352ZM8.21721 615.751C6.75434 612.826 5.65718 609.779 4.68194 606.611L6.26672 606.123C7.12006 609.292 8.33912 612.217 9.68009 615.02L8.21721 615.751ZM2.60953 596.861C2.24381 593.692 2 590.401 2 587.11H3.58478C3.58478 590.401 3.82859 593.57 4.19431 596.739L2.60953 596.861ZM4.0724 577.482L2.48762 577.36C2.85334 574.191 3.34097 570.901 3.9505 567.732L5.53528 568.098C4.92575 571.145 4.43812 574.435 4.0724 577.482ZM7.8515 558.591L6.26672 558.104C7.8515 552.376 9.43628 548.963 9.43628 548.841L10.8991 549.451C10.8991 549.572 9.43628 553.107 7.8515 558.591Z" fill="#C2BEBC"/>
        <path d="M521.808 362.37C521.808 362.37 519.126 359.932 514.25 356.398L515.225 355.057C520.101 358.713 522.905 361.151 522.905 361.151L521.808 362.37ZM506.326 350.791C503.644 348.963 500.962 347.257 498.158 345.551L499.012 344.21C501.815 345.916 504.619 347.623 507.301 349.451L506.326 350.791ZM489.747 340.798C486.943 339.213 484.017 337.751 481.091 336.41L481.823 334.947C484.749 336.288 487.674 337.873 490.478 339.335L489.747 340.798ZM472.314 332.388C469.267 331.169 466.341 329.951 463.293 328.854L463.781 327.269C466.828 328.366 469.876 329.585 472.924 330.804L472.314 332.388ZM349.433 330.438V328.854C352.602 328.732 355.772 328.488 358.941 328.001L359.185 329.585C355.894 330.072 352.602 330.438 349.433 330.438ZM339.558 329.951C336.389 329.585 333.219 328.976 329.928 328.001L330.294 326.416C333.463 327.269 336.633 327.879 339.68 328.244L339.558 329.951ZM368.694 327.391L368.206 325.807C369.303 325.441 370.279 325.197 371.376 324.832C373.448 324.1 375.521 323.491 377.471 322.882L377.959 324.466C375.886 325.075 373.936 325.685 371.864 326.294C370.888 326.66 369.791 327.025 368.694 327.391ZM454.15 325.929C451.103 324.954 447.933 324.222 444.763 323.491L445.129 321.907C448.299 322.638 451.468 323.491 454.516 324.344L454.15 325.929ZM320.663 324.954C317.859 323.857 314.933 322.516 311.764 321.054L312.495 319.591C315.665 321.054 318.469 322.394 321.272 323.491L320.663 324.954ZM387.346 322.15L386.98 320.566C390.149 319.957 393.441 319.347 396.61 318.982L396.854 320.566C393.685 321.054 390.515 321.541 387.346 322.15ZM435.377 321.663C432.207 321.175 428.916 320.688 425.868 320.444L425.99 318.86C429.159 319.225 432.451 319.591 435.62 320.079L435.377 321.663ZM150.97 320.079L150.116 318.738C152.92 316.91 155.724 315.203 158.406 313.619L159.259 314.96C156.577 316.544 153.773 318.25 150.97 320.079ZM406.485 319.835L406.363 318.25C409.533 318.128 412.824 318.007 416.115 318.128V319.713C412.946 319.713 409.654 319.713 406.485 319.835ZM303.108 316.544C300.305 315.082 297.623 313.497 294.575 311.791L295.428 310.328C298.476 312.035 301.158 313.497 303.84 315.082L303.108 316.544ZM167.549 310.085L166.817 308.622C169.743 307.038 172.669 305.453 175.473 304.113L176.204 305.575C173.278 307.038 170.475 308.5 167.549 310.085ZM286.163 307.16C282.994 305.453 280.19 303.991 277.63 302.65L278.361 301.188C280.922 302.528 283.847 303.991 287.017 305.697L286.163 307.16ZM184.859 301.553L184.25 300.091C187.298 298.75 190.345 297.531 193.271 296.434L193.881 297.897C190.955 298.994 187.907 300.213 184.859 301.553ZM268.853 298.628C265.805 297.288 262.758 296.191 259.832 295.216L260.319 293.631C263.367 294.606 266.293 295.703 269.462 297.044L268.853 298.628ZM203.023 294.972L202.536 293.388C205.705 292.412 208.875 291.681 212.045 291.072L212.41 292.656C209.363 293.266 206.193 293.997 203.023 294.972ZM250.567 292.656C247.397 291.925 244.228 291.437 241.058 291.072L241.18 289.487C244.35 289.853 247.641 290.341 250.811 291.072L250.567 292.656ZM221.919 291.194L221.797 289.609C225.089 289.244 228.38 289.122 231.55 289.122V290.706C228.38 290.584 225.088 290.828 221.919 291.194Z" fill="#C2BEBC"/>
        <path d="M320.297 657.311L279.58 645.489L291.771 641.833L320.297 657.311Z" fill="#D6D6D6"/>
        <path d="M320.297 657.311L305.059 642.077L295.672 643.905L320.297 657.311Z" fill="#E8E8E8"/>
        <path d="M288.967 648.171L289.333 652.924L320.297 657.311L288.967 648.171Z" fill="#C2C2C2"/>
        <path d="M115.617 347.013L151.457 326.904L139.145 326.051L115.617 347.013Z" fill="#D6D6D6"/>
        <path d="M115.617 347.013L126.588 329.219L135.853 328.976L115.617 347.013Z" fill="#E8E8E8"/>
        <path d="M143.167 331.535L143.899 336.044L115.617 347.013L143.167 331.535Z" fill="#C2C2C2"/>
    </g>
    <defs>
        <linearGradient id="paint0_linear_550_715" x1="473.759" y1="563.518" x2="661.973" y2="563.518" gradientUnits="userSpaceOnUse">
            <stop stop-color="#DBDBDB"/>
            <stop offset="0.875" stop-color="#BDBDBD"/>
        </linearGradient>
        <linearGradient id="paint1_linear_550_715" x1="104.166" y1="447.888" x2="243.973" y2="433.522" gradientUnits="userSpaceOnUse">
            <stop stop-color="#CDCDCD"/>
            <stop offset="1" stop-color="#DADADA"/>
        </linearGradient>
        <linearGradient id="paint2_linear_550_715" x1="233.516" y1="567.635" x2="608.352" y2="567.635" gradientUnits="userSpaceOnUse">
            <stop stop-color="#F47B20"/>
            <stop offset="1" stop-color="#F15623"/>
        </linearGradient>
        <linearGradient id="paint3_linear_550_715" x1="272.545" y1="546.542" x2="421.256" y2="546.542" gradientUnits="userSpaceOnUse">
            <stop stop-color="#F47B20"/>
            <stop offset="1" stop-color="#F15623"/>
        </linearGradient>
        <linearGradient id="paint4_linear_550_715" x1="279.351" y1="541.498" x2="429.262" y2="541.498" gradientUnits="userSpaceOnUse">
            <stop stop-color="#F47B20"/>
            <stop offset="1" stop-color="#F15623"/>
        </linearGradient>
        <linearGradient id="paint5_linear_550_715" x1="389.006" y1="678.355" x2="522.11" y2="678.355" gradientUnits="userSpaceOnUse">
            <stop stop-color="#F47B20"/>
            <stop offset="1" stop-color="#F15623"/>
        </linearGradient>
        <linearGradient id="paint6_linear_550_715" x1="384.828" y1="674.817" x2="519.132" y2="674.817" gradientUnits="userSpaceOnUse">
            <stop stop-color="#F47B20"/>
            <stop offset="1" stop-color="#F15623"/>
        </linearGradient>
        <linearGradient id="paint7_linear_550_715" x1="419.609" y1="440.709" x2="457.672" y2="440.709" gradientUnits="userSpaceOnUse">
            <stop stop-color="#F47B20"/>
            <stop offset="1" stop-color="#F15623"/>
        </linearGradient>
        <clipPath id="clip0_550_715">
            <rect width="660" height="439" fill="white" transform="translate(2 289)"/>
        </clipPath>
    </defs>
</svg>
