<svg width="40" height="40" viewBox="0 0 40 40" fill="none" xmlns="http://www.w3.org/2000/svg">
<circle cx="20" cy="20" r="20" fill="#689F38"/>
<g clip-path="url(#clip0_8003_20683)">
<path d="M15.437 30H24.563C26.482 29.1261 28.1092 27.7187 29.2505 25.9456C30.3919 24.1726 30.9991 22.1086 31 20H9C9.00085 22.1086 9.60815 24.1726 10.7495 25.9456C11.8908 27.7187 13.518 29.1261 15.437 30V30Z" stroke="white" stroke-width="2" stroke-miterlimit="10" stroke-linecap="round" stroke-linejoin="round"/>
<path d="M27 15L31 9" stroke="white" stroke-width="2" stroke-miterlimit="10" stroke-linecap="round" stroke-linejoin="round"/>
<path d="M23.2148 15L24.9998 10" stroke="white" stroke-width="2" stroke-miterlimit="10" stroke-linecap="round" stroke-linejoin="round"/>
<path d="M28.8289 16.9998C28.6579 16.5126 28.3637 16.0779 27.9748 15.7382C27.5859 15.3984 27.1157 15.1652 26.6099 15.0612C26.1041 14.9571 25.58 14.9859 25.0886 15.1446C24.5972 15.3033 24.1553 15.5866 23.8059 15.9668C23.6599 15.5574 23.4255 15.1852 23.1195 14.8766C22.8135 14.5679 22.4434 14.3304 22.0353 14.1808C21.6272 14.0313 21.1912 13.9734 20.7582 14.0112C20.3252 14.0491 19.9059 14.1817 19.5299 14.3998C19.2306 13.922 18.8021 13.5388 18.2939 13.2946C17.7858 13.0503 17.2189 12.955 16.6589 13.0197C16.0988 13.0844 15.5685 13.3064 15.1294 13.66C14.6904 14.0136 14.3604 14.4844 14.1779 15.0178C14.1179 15.0138 14.0609 14.9998 13.9999 14.9998C13.3794 14.9997 12.7742 15.192 12.2675 15.5502C11.7609 15.9083 11.3777 16.4148 11.1709 16.9998" stroke="white" stroke-width="2" stroke-miterlimit="10" stroke-linecap="round" stroke-linejoin="round"/>
<path d="M12 12C12.5523 12 13 11.5523 13 11C13 10.4477 12.5523 10 12 10C11.4477 10 11 10.4477 11 11C11 11.5523 11.4477 12 12 12Z" fill="white"/>
<path d="M20 11C20.5523 11 21 10.5523 21 10C21 9.44772 20.5523 9 20 9C19.4477 9 19 9.44772 19 10C19 10.5523 19.4477 11 20 11Z" fill="white"/>
</g>
<defs>
<clipPath id="clip0_8003_20683">
<rect width="24" height="24" fill="white" transform="translate(8 8)"/>
</clipPath>
</defs>
</svg>
