<?xml version="1.0" standalone="no"?>
<!DOCTYPE svg PUBLIC "-//W3C//DTD SVG 20010904//EN"
  "http://www.w3.org/2000/svg">
<svg version="1.0" xmlns="http://www.w3.org/2000/svg"
     width="900.000000pt" height="980.000000pt" viewBox="0 0 900.000000 980.000000"
     preserveAspectRatio="xMidYMid meet">

  <g transform="translate(0.000000,980.000000) scale(0.100000,-0.100000)"
     fill="#00000" stroke="none">
    <path d="M3273 8573 c-667 -668 -1213 -1218 -1213 -1222 0 -5 548 -556 1218
-1226 l1217 -1217 3 977 2 978 138 -7 c725 -36 1410 -338 1927 -851 465 -462
743 -1015 848 -1685 30 -195 30 -605 0 -800 -104 -664 -379 -1215 -838 -1675
-787 -789 -1941 -1064 -2995 -715 -1151 381 -1956 1440 -2016 2650 l-7 140
-490 0 -490 0 6 -152 c37 -853 332 -1634 871 -2308 120 -150 399 -432 549
-556 376 -309 809 -550 1262 -702 833 -280 1763 -266 2582 39 550 205 999 494
1418 914 643 642 1019 1418 1132 2335 13 108 17 218 17 430 0 305 -12 446 -60
710 -99 539 -321 1069 -641 1528 -248 357 -619 727 -978 977 -504 352 -1113
590 -1710 669 -141 19 -362 36 -457 36 l-68 0 0 975 c0 536 -3 975 -7 974 -5
-1 -554 -548 -1220 -1216z"/>
  </g>
</svg>
