<svg width="120" height="120" viewBox="0 0 120 120" fill="none" xmlns="http://www.w3.org/2000/svg">
  <path
    d="M59.9994 26.6665C41.666 26.6665 26.666 41.6665 26.666 59.9998C26.666 78.3332 41.666 93.3332 59.9994 93.3332C78.3327 93.3332 93.3327 78.3332 93.3327 59.9998C93.3327 41.6665 78.3327 26.6665 59.9994 26.6665ZM59.9994 86.6665C45.2994 86.6665 33.3327 74.6998 33.3327 59.9998C33.3327 45.2998 45.2994 33.3332 59.9994 33.3332C74.6994 33.3332 86.666 45.2998 86.666 59.9998C86.666 74.6998 74.6994 86.6665 59.9994 86.6665ZM61.666 43.3332H56.666V63.3332L73.9994 73.9998L76.666 69.6665L61.666 60.6665V43.3332Z"
    fill="#E50500"
  />
  <circle cx="60" cy="60" r="59.5" stroke="#E50500" stroke-dasharray="5 5" />
</svg>
