<svg width="129" height="129" viewBox="0 0 129 129" fill="none" xmlns="http://www.w3.org/2000/svg">
  <path fill-rule="evenodd" clip-rule="evenodd" d="M64.5 0C60.912 0 58 2.9055 58 6.5V19.5C58 23.0945 60.912 26 64.5 26C68.088 26 71 23.0945 71 19.5V6.5C71 2.9055 68.088 0 64.5 0Z" fill="#219653"/>
  <path opacity="0.6" fill-rule="evenodd" clip-rule="evenodd" d="M122.5 58H109.5C105.912 58 103 60.9055 103 64.5C103 68.0945 105.912 71 109.5 71H122.5C126.088 71 129 68.0945 129 64.5C129 60.9055 126.088 58 122.5 58Z" fill="#00C968"/>
  <path opacity="0.6" fill-rule="evenodd" clip-rule="evenodd" d="M19.5 57H6.5C2.912 57 0 59.9055 0 63.5C0 67.0945 2.912 70 6.5 70H19.5C23.088 70 26 67.0945 26 63.5C26 59.9055 23.088 57 19.5 57Z" fill="#00C968"/>
  <path opacity="0.8" fill-rule="evenodd" clip-rule="evenodd" d="M26.8433 19.8187C24.3036 17.326 20.2606 17.4104 17.7977 19.981C15.3412 22.558 15.4116 26.6734 17.9513 29.1596L27.1567 38.1824C28.4042 39.4028 30.0035 40 31.6027 40C33.2788 40 34.9484 39.3379 36.2023 38.0202C38.6588 35.4431 38.5884 31.3277 36.0487 28.8415L26.8433 19.8187Z" fill="#219653"/>
  <path opacity="0.2" fill-rule="evenodd" clip-rule="evenodd" d="M96.6881 40C98.36 40 100.032 39.3963 101.336 38.1824L110.96 29.1596C113.615 26.667 113.689 22.5515 111.121 19.981C108.559 17.4104 104.332 17.326 101.664 19.8187L92.04 28.835C89.3849 31.3277 89.3113 35.4431 91.8794 38.0137C93.1903 39.3314 94.9358 40 96.6881 40Z" fill="#25F57C"/>
  <path fill-rule="evenodd" clip-rule="evenodd" d="M64.5 103C60.912 103 58 105.906 58 109.5V122.5C58 126.094 60.912 129 64.5 129C68.088 129 71 126.094 71 122.5V109.5C71 105.906 68.088 103 64.5 103Z" fill="#219653"/>
  <path opacity="0.8" fill-rule="evenodd" clip-rule="evenodd" d="M101.336 91.8164C98.681 89.33 94.4476 89.4079 91.8794 91.9787C89.3113 94.556 89.3849 98.6719 92.04 101.158L101.664 110.182C102.968 111.403 104.64 112 106.312 112C108.064 112 109.81 111.338 111.121 110.02C113.689 107.443 113.615 103.327 110.96 100.84L101.336 91.8164Z" fill="#219653"/>
  <path opacity="0.2" fill-rule="evenodd" clip-rule="evenodd" d="M27.1567 91.8164L17.9513 100.84C15.4116 103.327 15.3412 107.443 17.7977 110.02C19.0516 111.338 20.7212 112 22.3973 112C23.9965 112 25.5958 111.403 26.8433 110.182L36.0487 101.158C38.5884 98.6719 38.6588 94.556 36.2023 91.9787C33.7522 89.4079 29.7028 89.33 27.1567 91.8164Z" fill="#25F57C"/>
</svg>
