<svg width="32" height="32" viewBox="0 0 32 32" fill="none" xmlns="http://www.w3.org/2000/svg">
<g clip-path="url(#clip0_7776_23574)" filter="url(#filter0_d_7776_23574)">
<path d="M25.333 4.66634H21.6347L19.4997 2.33301H12.4997L10.3647 4.66634H6.66634C5.38301 4.66634 4.33301 5.71634 4.33301 6.99967V20.9997C4.33301 22.283 5.38301 23.333 6.66634 23.333H25.333C26.6163 23.333 27.6663 22.283 27.6663 20.9997V6.99967C27.6663 5.71634 26.6163 4.66634 25.333 4.66634ZM25.333 20.9997H6.66634V6.99967H11.3913L13.5263 4.66634H18.473L20.608 6.99967H25.333V20.9997ZM15.9997 8.16634C12.7797 8.16634 10.1663 10.7797 10.1663 13.9997C10.1663 17.2197 12.7797 19.833 15.9997 19.833C19.2197 19.833 21.833 17.2197 21.833 13.9997C21.833 10.7797 19.2197 8.16634 15.9997 8.16634ZM15.9997 17.4997C14.0747 17.4997 12.4997 15.9247 12.4997 13.9997C12.4997 12.0747 14.0747 10.4997 15.9997 10.4997C17.9247 10.4997 19.4997 12.0747 19.4997 13.9997C19.4997 15.9247 17.9247 17.4997 15.9997 17.4997Z" fill="#219653"/>
</g>
<defs>
<filter id="filter0_d_7776_23574" x="-2" y="0" width="36" height="36" filterUnits="userSpaceOnUse" color-interpolation-filters="sRGB">
<feFlood flood-opacity="0" result="BackgroundImageFix"/>
<feColorMatrix in="SourceAlpha" type="matrix" values="0 0 0 0 0 0 0 0 0 0 0 0 0 0 0 0 0 0 127 0" result="hardAlpha"/>
<feOffset dy="4"/>
<feGaussianBlur stdDeviation="2"/>
<feComposite in2="hardAlpha" operator="out"/>
<feColorMatrix type="matrix" values="0 0 0 0 0 0 0 0 0 0 0 0 0 0 0 0 0 0 0.25 0"/>
<feBlend mode="normal" in2="BackgroundImageFix" result="effect1_dropShadow_7776_23574"/>
<feBlend mode="normal" in="SourceGraphic" in2="effect1_dropShadow_7776_23574" result="shape"/>
</filter>
<clipPath id="clip0_7776_23574">
<rect width="28" height="28" fill="white" transform="translate(2)"/>
</clipPath>
</defs>
</svg>
