<svg width="50" height="46" viewBox="0 0 50 46" fill="none" xmlns="http://www.w3.org/2000/svg">
  <path d="M47.5 0.5C48.163 0.5 48.7989 0.763392 49.2678 1.23223C49.7366 1.70107 50 2.33696 50 3V20.5C50 21.163 49.7366 21.7989 49.2678 22.2678C48.7989 22.7366 48.163 23 47.5 23H42.4975L42.5 43C42.5 43.663 42.2366 44.2989 41.7678 44.7678C41.2989 45.2366 40.663 45.5 40 45.5H10C9.33696 45.5 8.70107 45.2366 8.23223 44.7678C7.76339 44.2989 7.5 43.663 7.5 43L7.4975 22.9975L2.5 23C1.83696 23 1.20107 22.7366 0.732233 22.2678C0.263392 21.7989 0 21.163 0 20.5V3C0 2.33696 0.263392 1.70107 0.732233 1.23223C1.20107 0.763392 1.83696 0.5 2.5 0.5H17.5C17.5 2.48912 18.2902 4.39678 19.6967 5.8033C21.1032 7.20982 23.0109 8 25 8C26.9891 8 28.8968 7.20982 30.3033 5.8033C31.7098 4.39678 32.5 2.48912 32.5 0.5H47.5Z" fill="#FE9D0B"/>
</svg>
