<svg width="20" height="20" viewBox="0 0 20 20" fill="none" xmlns="http://www.w3.org/2000/svg">
  <path d="M19.7404 5.52063C19.5668 5.10415 19.3584 4.77419 19.1152 4.5312L15.4694 0.885315C15.2265 0.64246 14.8966 0.434038 14.4799 0.260322C14.0635 0.0867894 13.6814 0 13.3343 0H1.25087C0.903759 0 0.608548 0.12145 0.365465 0.364534C0.122381 0.60748 0.000976562 0.902646 0.000976562 1.24994V18.7501C0.000976562 19.0974 0.122381 19.3926 0.365465 19.6356C0.608548 19.8785 0.903759 20 1.25087 20H18.7509C19.0984 20 19.3935 19.8785 19.6365 19.6356C19.8793 19.3926 20.0008 19.0974 20.0008 18.7501V6.66668C20.0008 6.31934 19.914 5.93743 19.7404 5.52063ZM8.33431 2.08317C8.33431 1.97034 8.37558 1.87288 8.45808 1.79024C8.54049 1.70797 8.63818 1.66674 8.75101 1.66674H11.2511C11.3637 1.66674 11.4613 1.70788 11.5438 1.79024C11.6265 1.87288 11.6677 1.97034 11.6677 2.08317V6.24988C11.6677 6.3629 11.6262 6.46049 11.5438 6.543C11.4613 6.62523 11.3637 6.6665 11.2511 6.6665H8.75101C8.63818 6.6665 8.54045 6.62536 8.45808 6.543C8.37558 6.46036 8.33431 6.3629 8.33431 6.24988V2.08317ZM15.0011 18.3334H5.00083V13.3333H15.0011V18.3334ZM18.3347 18.3334H16.6677H16.6674V12.9166C16.6674 12.5692 16.5459 12.2742 16.3029 12.0311C16.0599 11.7881 15.7648 11.6665 15.4177 11.6665H4.58421C4.23696 11.6665 3.94175 11.7881 3.69867 12.0311C3.45572 12.2741 3.33418 12.5692 3.33418 12.9166V18.3334H1.66749V1.66656H3.33414V7.0833C3.33414 7.43059 3.45554 7.72562 3.69862 7.96871C3.94171 8.21165 4.23692 8.33324 4.58417 8.33324H12.0844C12.4315 8.33324 12.727 8.21165 12.9697 7.96871C13.2125 7.72576 13.3343 7.43059 13.3343 7.0833V1.66656C13.4644 1.66656 13.6336 1.70988 13.8421 1.79667C14.0506 1.88342 14.1981 1.97021 14.2849 2.05699L17.944 5.71601C18.0308 5.8028 18.1176 5.95271 18.2044 6.16528C18.2914 6.37804 18.3347 6.54519 18.3347 6.66668V18.3334H18.3347Z" fill="#1574F6"/>
</svg>
