<svg width="32" height="32" viewBox="0 0 32 32" fill="none" xmlns="http://www.w3.org/2000/svg">
<path d="M31.928 1.3721C32.0008 1.19037 32.0186 0.991292 31.9792 0.799539C31.9399 0.607787 31.8452 0.431795 31.7068 0.293382C31.5683 0.154969 31.3923 0.0602219 31.2006 0.020887C31.0088 -0.0184479 30.8098 -0.000640906 30.628 0.0721004L1.53403 11.7101H1.53203L0.628035 12.0701C0.456815 12.1384 0.307806 12.2527 0.197466 12.4004C0.0871263 12.548 0.0197507 12.7233 0.00278159 12.9069C-0.0141875 13.0904 0.0199104 13.2751 0.101309 13.4405C0.182707 13.6059 0.308238 13.7456 0.464035 13.8441L1.28403 14.3641L1.28603 14.3681L11.276 20.7241L14.456 25.7201C16 28.0001 16 26.0001 16 25.0001C15.9998 23.7293 16.2687 22.4728 16.789 21.3134C17.3094 20.154 18.0693 19.1179 19.0189 18.2733C19.9685 17.4288 21.0862 16.7949 22.2984 16.4135C23.5107 16.032 24.7899 15.9116 26.052 16.0601L31.928 1.3721ZM28.262 5.1521L13.274 20.1401L12.844 19.4641C12.7652 19.3401 12.6601 19.2349 12.536 19.1561L11.86 18.7261L26.848 3.7381L29.204 2.7961L28.264 5.1521H28.262Z" fill="#1574F6"/>
<path d="M32 25C32 26.8565 31.2625 28.637 29.9497 29.9497C28.637 31.2625 26.8565 32 25 32C23.1435 32 21.363 31.2625 20.0503 29.9497C18.7375 28.637 18 26.8565 18 25C18 23.1435 18.7375 21.363 20.0503 20.0503C21.363 18.7375 23.1435 18 25 18C26.8565 18 28.637 18.7375 29.9497 20.0503C31.2625 21.363 32 23.1435 32 25ZM25 21C24.7348 21 24.4804 21.1054 24.2929 21.2929C24.1054 21.4804 24 21.7348 24 22V24H22C21.7348 24 21.4804 24.1054 21.2929 24.2929C21.1054 24.4804 21 24.7348 21 25C21 25.2652 21.1054 25.5196 21.2929 25.7071C21.4804 25.8946 21.7348 26 22 26H24V28C24 28.2652 24.1054 28.5196 24.2929 28.7071C24.4804 28.8946 24.7348 29 25 29C25.2652 29 25.5196 28.8946 25.7071 28.7071C25.8946 28.5196 26 28.2652 26 28V26H28C28.2652 26 28.5196 25.8946 28.7071 25.7071C28.8946 25.5196 29 25.2652 29 25C29 24.7348 28.8946 24.4804 28.7071 24.2929C28.5196 24.1054 28.2652 24 28 24H26V22C26 21.7348 25.8946 21.4804 25.7071 21.2929C25.5196 21.1054 25.2652 21 25 21Z" fill="#1574F6"/>
</svg>
