<svg width="40" height="40" viewBox="0 0 40 40" fill="none" xmlns="http://www.w3.org/2000/svg">
  <path fill-rule="evenodd" clip-rule="evenodd" d="M27.1429 8.75C27.1429 7.0924 26.3903 5.50269 25.0508 4.33058C23.7112 3.15848 21.8944 2.5 20 2.5C18.1056 2.5 16.2888 3.15848 14.9492 4.33058C13.6097 5.50269 12.8571 7.0924 12.8571 8.75V10H27.1429V8.75ZM30 8.75V10H40V35C40 36.3261 39.398 37.5979 38.3263 38.5355C37.2547 39.4732 35.8012 40 34.2857 40H5.71429C4.19876 40 2.74531 39.4732 1.67368 38.5355C0.602039 37.5979 0 36.3261 0 35V10H10V8.75C10 6.42936 11.0536 4.20376 12.9289 2.56282C14.8043 0.921872 17.3478 0 20 0C22.6522 0 25.1957 0.921872 27.0711 2.56282C28.9464 4.20376 30 6.42936 30 8.75ZM14.2857 23.75C13.9068 23.75 13.5435 23.8817 13.2756 24.1161C13.0077 24.3505 12.8571 24.6685 12.8571 25C12.8571 25.3315 13.0077 25.6495 13.2756 25.8839C13.5435 26.1183 13.9068 26.25 14.2857 26.25H25.7143C26.0932 26.25 26.4565 26.1183 26.7244 25.8839C26.9923 25.6495 27.1429 25.3315 27.1429 25C27.1429 24.6685 26.9923 24.3505 26.7244 24.1161C26.4565 23.8817 26.0932 23.75 25.7143 23.75H14.2857Z" fill="#F15B25"/>
</svg>
