<?xml version="1.0" encoding="UTF-8" standalone="no"?> <svg width="64" height="64" viewBox="0 0 64 64" fill="none" xmlns="http://www.w3.org/2000/svg">
  <path d="M42.3399 21.43C41.1518 21.431 40.0122 21.9019 39.1699 22.74L28.0499 33.87L24.8299 30.65C23.9879 29.8093 22.8463 29.3375 21.6564 29.3384C20.4665 29.3393 19.3257 29.8129 18.4849 30.655C17.6442 31.4971 17.1724 32.6386 17.1733 33.8285C17.1743 35.0184 17.6479 36.1593 18.4899 37L24.8799 43.39C25.7216 44.229 26.8615 44.7002 28.0499 44.7002C29.2384 44.7002 30.3783 44.229 31.2199 43.39L45.5099 29.09C46.1373 28.4634 46.5647 27.6648 46.7379 26.7952C46.9112 25.9256 46.8224 25.0241 46.483 24.205C46.1436 23.3858 45.5687 22.6858 44.8312 22.1936C44.0936 21.7014 43.2266 21.4391 42.3399 21.44V21.43Z" fill="#00af38"/>
  <path d="M32 3C26.2644 3 20.6575 4.70082 15.8885 7.88738C11.1195 11.0739 7.40245 15.6031 5.20751 20.9022C3.01257 26.2012 2.43827 32.0322 3.55724 37.6576C4.67621 43.2831 7.43819 48.4504 11.4939 52.5061C15.5496 56.5618 20.7169 59.3238 26.3424 60.4428C31.9678 61.5617 37.7988 60.9874 43.0978 58.7925C48.3969 56.5976 52.9261 52.8806 56.1126 48.1115C59.2992 43.3425 61 37.7357 61 32C61 24.3087 57.9447 16.9325 52.5061 11.4939C47.0676 6.05535 39.6913 3 32 3V3ZM32 52C28.0444 52 24.1776 50.827 20.8886 48.6294C17.5996 46.4318 15.0362 43.3082 13.5224 39.6537C12.0087 35.9991 11.6126 31.9778 12.3843 28.0982C13.156 24.2186 15.0608 20.6549 17.8579 17.8579C20.6549 15.0608 24.2186 13.156 28.0982 12.3843C31.9778 11.6126 35.9992 12.0087 39.6537 13.5224C43.3082 15.0362 46.4318 17.5996 48.6294 20.8886C50.827 24.1776 52 28.0444 52 32C52 37.3043 49.8929 42.3914 46.1421 46.1421C42.3914 49.8929 37.3043 52 32 52Z" fill="#00af38"/>
</svg>
