<svg width="40" height="40" viewBox="0 0 40 40" fill="none" xmlns="http://www.w3.org/2000/svg">
  <path fill-rule="evenodd" clip-rule="evenodd" d="M27.1429 8.75C27.1429 7.0924 26.3903 5.50269 25.0508 4.33058C23.7112 3.15848 21.8944 2.5 20 2.5C18.1056 2.5 16.2888 3.15848 14.9492 4.33058C13.6097 5.50269 12.8571 7.0924 12.8571 8.75V10H27.1429V8.75ZM30 8.75V10H40V35C40 36.3261 39.398 37.5979 38.3263 38.5355C37.2547 39.4732 35.8012 40 34.2857 40H5.71429C4.19876 40 2.74531 39.4732 1.67368 38.5355C0.602039 37.5979 0 36.3261 0 35V10H10V8.75C10 6.42936 11.0536 4.20376 12.9289 2.56282C14.8043 0.921872 17.3478 0 20 0C22.6522 0 25.1957 0.921872 27.0711 2.56282C28.9464 4.20376 30 6.42936 30 8.75ZM28.1543 22.135C28.4225 21.9003 28.5732 21.5819 28.5732 21.25C28.5732 20.9181 28.4225 20.5997 28.1543 20.365C27.886 20.1303 27.5222 19.9984 27.1429 19.9984C26.7635 19.9984 26.3997 20.1303 26.1314 20.365L18.5714 26.9825L15.2971 24.115C15.1643 23.9988 15.0066 23.9066 14.8331 23.8437C14.6596 23.7808 14.4736 23.7484 14.2857 23.7484C14.0979 23.7484 13.9119 23.7808 13.7383 23.8437C13.5648 23.9066 13.4071 23.9988 13.2743 24.115C13.1415 24.2312 13.0361 24.3692 12.9642 24.521C12.8923 24.6729 12.8553 24.8356 12.8553 25C12.8553 25.1644 12.8923 25.3271 12.9642 25.479C13.0361 25.6308 13.1415 25.7688 13.2743 25.885L17.56 29.635C17.6927 29.7514 17.8503 29.8438 18.0239 29.9068C18.1975 29.9698 18.3835 30.0022 18.5714 30.0022C18.7593 30.0022 18.9454 29.9698 19.119 29.9068C19.2925 29.8438 19.4502 29.7514 19.5829 29.635L28.1543 22.135Z" fill="#F15B25"/>
</svg>
