<svg width="85" height="85" viewBox="0 0 85 85" fill="none" xmlns="http://www.w3.org/2000/svg">
  <path d="M40.15 49.55H44.85V54.25H40.15V49.55ZM40.15 30.75H44.85V44.85H40.15V30.75ZM42.4765 19C29.5045 19 19 29.528 19 42.5C19 55.472 29.5045 66 42.4765 66C55.472 66 66 55.472 66 42.5C66 29.528 55.472 19 42.4765 19ZM42.5 61.3C32.113 61.3 23.7 52.887 23.7 42.5C23.7 32.113 32.113 23.7 42.5 23.7C52.887 23.7 61.3 32.113 61.3 42.5C61.3 52.887 52.887 61.3 42.5 61.3Z" fill="#E50500"/>
  <circle cx="42.5" cy="42.5" r="42" stroke="#E50500" stroke-dasharray="5 5"/>
</svg>
