<?xml version="1.0" standalone="no"?>
<!DOCTYPE svg PUBLIC "-//W3C//DTD SVG 20010904//EN"
  "http://www.w3.org/2000/svg">
<svg version="1.0" xmlns="http://www.w3.org/2000/svg"
     width="479.000000pt" height="521.000000pt" viewBox="0 0 479.000000 521.000000"
     preserveAspectRatio="xMidYMid meet">
  <g transform="translate(0.000000,521.000000) scale(0.100000,-0.100000)"
     fill="#000000" stroke="none">
    <path d="M1703 4649 c-638 -61 -1189 -436 -1479 -1005 -129 -254 -194 -529
-194 -824 0 -529 214 -1006 615 -1368 306 -276 697 -438 1128 -466 l87 -6 0
229 0 229 -72 7 c-132 12 -252 35 -358 71 -461 154 -808 542 -915 1024 -26
115 -31 374 -11 496 54 323 218 615 459 821 187 160 394 262 640 315 144 30
380 30 524 0 248 -53 451 -153 641 -315 271 -232 448 -583 469 -929 l6 -108
-459 0 -459 0 570 -570 c313 -314 574 -570 580 -570 11 0 1135 1121 1135 1133
0 4 -205 7 -455 7 l-455 0 0 68 c0 150 -38 355 -97 527 -104 301 -303 591
-548 800 -375 320 -875 481 -1352 434z"/>
  </g>
</svg>
