<svg width="111" height="32" viewBox="0 0 111 32" fill="none" xmlns="http://www.w3.org/2000/svg">
  <path
    d="M110.383 28.3093C110.383 30.0146 108.97 31.396 107.222 31.396H3.78121C2.03424 31.396 0.616211 30.0146 0.616211 28.3093V3.69421C0.616211 1.98969 2.03424 0.603516 3.78121 0.603516H107.221C108.97 0.603516 110.382 1.98969 110.382 3.69421L110.383 28.3093Z"
    fill="black"
  />
  <path
    d="M106.889 0.641C108.792 0.641 110.341 2.148 110.341 4V28C110.341 29.852 108.792 31.359 106.889 31.359H4.11111C2.20767 31.359 0.658805 29.852 0.658805 28V4C0.658805 2.148 2.20767 0.641 4.11111 0.641H106.889ZM106.889 1.69118e-06H4.11111C1.85103 1.69118e-06 0 1.801 0 4V28C0 30.199 1.85103 32 4.11111 32H106.889C109.149 32 111 30.199 111 28V4C111 1.801 109.149 1.69118e-06 106.889 1.69118e-06Z"
    fill="white"
  />
  <path
    d="M24.7717 15.8272C24.7479 13.2488 26.9415 11.9944 27.0419 11.936C25.7995 10.1736 23.8738 9.93283 23.1971 9.91363C21.5798 9.74803 20.011 10.8552 19.1872 10.8552C18.3469 10.8552 17.0782 9.92963 15.7108 9.95683C13.9513 9.98323 12.3052 10.9744 11.4024 12.5136C9.53921 15.652 10.9288 20.264 12.7138 22.8008C13.6067 24.0432 14.6501 25.4304 16.0159 25.3816C17.352 25.328 17.8511 24.5528 19.4634 24.5528C21.061 24.5528 21.5297 25.3816 22.9225 25.3504C24.3565 25.328 25.2593 24.1024 26.121 22.8488C27.1529 21.4248 27.5673 20.0224 27.5837 19.9504C27.55 19.9392 24.7988 18.9176 24.7717 15.8272Z"
    fill="white"
  />
  <path
    d="M22.1406 8.24483C22.8592 7.37043 23.3509 6.18083 23.2144 4.97363C22.1743 5.01843 20.8735 5.67363 20.1245 6.52883C19.4618 7.28243 18.8698 8.51763 19.0227 9.67923C20.1911 9.76403 21.3907 9.10563 22.1406 8.24483Z"
    fill="white"
  />
  <path
    d="M44.1078 25.203H42.2405L41.2177 22.0758H37.6624L36.688 25.203H34.8701L38.3925 14.5566H40.5681L44.1078 25.203ZM40.9093 20.7638L39.9843 17.9838C39.8865 17.6998 39.7031 17.031 39.4326 15.9782H39.3997C39.292 16.431 39.1185 17.0998 38.8801 17.9838L37.9715 20.7638H40.9093Z"
    fill="white"
  />
  <path
    d="M53.1665 21.2703C53.1665 22.5759 52.8039 23.6079 52.0787 24.3655C51.4292 25.0399 50.6226 25.3767 49.6597 25.3767C48.6204 25.3767 47.8739 25.0135 47.4192 24.2871H47.3863V28.3311H45.6333V20.0535C45.6333 19.2327 45.6111 18.3903 45.5684 17.5263H47.11L47.2079 18.7431H47.2408C47.8254 17.8263 48.7125 17.3687 49.9031 17.3687C50.8339 17.3687 51.6109 17.7263 52.2325 18.4423C52.8557 19.1591 53.1665 20.1015 53.1665 21.2703ZM51.3806 21.3327C51.3806 20.5855 51.208 19.9695 50.861 19.4847C50.482 18.9791 49.973 18.7263 49.335 18.7263C48.9025 18.7263 48.5094 18.8671 48.1584 19.1447C47.8064 19.4247 47.5762 19.7903 47.4685 20.2431C47.4142 20.4543 47.3871 20.6271 47.3871 20.7631V22.0431C47.3871 22.6015 47.5631 23.0727 47.915 23.4575C48.2669 23.8423 48.724 24.0343 49.2864 24.0343C49.9467 24.0343 50.4606 23.7863 50.8281 23.2919C51.1965 22.7967 51.3806 22.1439 51.3806 21.3327Z"
    fill="white"
  />
  <path
    d="M62.2409 21.2703C62.2409 22.5759 61.8783 23.6079 61.1523 24.3655C60.5035 25.0399 59.6969 25.3767 58.7341 25.3767C57.6948 25.3767 56.9482 25.0135 56.4944 24.2871H56.4615V28.3311H54.7085V20.0535C54.7085 19.2327 54.6863 18.3903 54.6436 17.5263H56.1852L56.2831 18.7431H56.316C56.8997 17.8263 57.7869 17.3687 58.9783 17.3687C59.9082 17.3687 60.6852 17.7263 61.3085 18.4423C61.9293 19.1591 62.2409 20.1015 62.2409 21.2703ZM60.455 21.3327C60.455 20.5855 60.2815 19.9695 59.9346 19.4847C59.5555 18.9791 59.0482 18.7263 58.4093 18.7263C57.976 18.7263 57.5838 18.8671 57.2319 19.1447C56.88 19.4247 56.6506 19.7903 56.5429 20.2431C56.4894 20.4543 56.4615 20.6271 56.4615 20.7631V22.0431C56.4615 22.6015 56.6374 23.0727 56.9877 23.4575C57.3396 23.8415 57.7968 24.0343 58.3608 24.0343C59.0211 24.0343 59.535 23.7863 59.9025 23.2919C60.2708 22.7967 60.455 22.1439 60.455 21.3327Z"
    fill="white"
  />
  <path
    d="M72.3879 22.2177C72.3879 23.1233 72.0647 23.8601 71.416 24.4289C70.7031 25.0505 69.7107 25.3609 68.4355 25.3609C67.258 25.3609 66.3141 25.1401 65.5996 24.6977L66.0058 23.2761C66.7754 23.7289 67.6198 23.9561 68.5399 23.9561C69.2001 23.9561 69.714 23.8105 70.0832 23.5209C70.4507 23.2313 70.6341 22.8425 70.6341 22.3577C70.6341 21.9257 70.4828 21.5617 70.1794 21.2665C69.8776 20.9713 69.3736 20.6969 68.6698 20.4433C66.754 19.7481 65.7969 18.7297 65.7969 17.3905C65.7969 16.5153 66.1324 15.7977 66.8042 15.2393C67.4735 14.6801 68.3664 14.4009 69.483 14.4009C70.4787 14.4009 71.3058 14.5697 71.9661 14.9065L71.5278 16.2969C70.9112 15.9705 70.2139 15.8073 69.4336 15.8073C68.817 15.8073 68.3351 15.9553 67.9898 16.2497C67.6979 16.5129 67.5516 16.8337 67.5516 17.2137C67.5516 17.6345 67.7185 17.9825 68.0539 18.2561C68.3458 18.5089 68.8762 18.7825 69.6458 19.0777C70.5872 19.4465 71.2787 19.8777 71.7235 20.3721C72.1667 20.8649 72.3879 21.4817 72.3879 22.2177Z"
    fill="white"
  />
  <path
    d="M78.183 18.8066H76.2508V22.5338C76.2508 23.4818 76.5912 23.9554 77.2736 23.9554C77.5869 23.9554 77.8467 23.929 78.0523 23.8762L78.1008 25.1714C77.7554 25.297 77.3008 25.3602 76.7375 25.3602C76.0452 25.3602 75.5042 25.1546 75.1136 24.7442C74.7247 24.333 74.529 23.6434 74.529 22.6746V18.805H73.3779V17.525H74.529V16.1194L76.2508 15.6138V17.525H78.183V18.8066Z"
    fill="white"
  />
  <path
    d="M86.9019 21.3016C86.9019 22.4816 86.5549 23.4504 85.8626 24.208C85.1366 24.988 84.1729 25.3768 82.9717 25.3768C81.814 25.3768 80.8923 25.0032 80.2049 24.256C79.5175 23.5088 79.1738 22.5656 79.1738 21.4288C79.1738 20.2392 79.5274 19.2648 80.237 18.5072C80.9449 17.7488 81.9003 17.3696 83.1016 17.3696C84.2593 17.3696 85.1908 17.7432 85.8938 18.4912C86.5664 19.2168 86.9019 20.1536 86.9019 21.3016ZM85.0831 21.3568C85.0831 20.6488 84.9277 20.0416 84.6128 19.5352C84.2453 18.9224 83.7199 18.6168 83.0391 18.6168C82.3344 18.6168 81.7992 18.9232 81.4317 19.5352C81.1167 20.0424 80.9613 20.6592 80.9613 21.3888C80.9613 22.0968 81.1167 22.704 81.4317 23.2096C81.8107 23.8224 82.3402 24.128 83.0235 24.128C83.6928 24.128 84.2182 23.816 84.5972 23.1936C84.9203 22.6776 85.0831 22.064 85.0831 21.3568Z"
    fill="white"
  />
  <path
    d="M92.5992 19.0263C92.4258 18.9951 92.2407 18.9791 92.0467 18.9791C91.43 18.9791 90.9531 19.2055 90.6177 19.6591C90.3258 20.0591 90.1794 20.5647 90.1794 21.1751V25.2031H88.4273L88.4437 19.9439C88.4437 19.0591 88.4215 18.2535 88.3779 17.5271H89.9048L89.9689 18.9959H90.0175C90.2025 18.4911 90.4943 18.0847 90.8939 17.7799C91.2845 17.5055 91.7063 17.3687 92.161 17.3687C92.323 17.3687 92.4693 17.3799 92.5992 17.3999V19.0263Z"
    fill="white"
  />
  <path
    d="M100.439 21.0017C100.439 21.3073 100.418 21.5649 100.375 21.7753H95.1156C95.1362 22.5337 95.3902 23.1137 95.8786 23.5137C96.3218 23.8713 96.8949 24.0505 97.5987 24.0505C98.3774 24.0505 99.0878 23.9297 99.7266 23.6873L100.001 24.8713C99.2547 25.1881 98.3732 25.3457 97.3562 25.3457C96.1327 25.3457 95.1723 24.9953 94.4734 24.2953C93.7762 23.5953 93.4268 22.6553 93.4268 21.4761C93.4268 20.3185 93.7515 19.3545 94.4019 18.5857C95.0827 17.7649 96.0028 17.3545 97.1605 17.3545C98.2976 17.3545 99.1585 17.7649 99.7431 18.5857C100.206 19.2377 100.439 20.0441 100.439 21.0017ZM98.7671 20.5593C98.7786 20.0537 98.6643 19.6169 98.4267 19.2481C98.1233 18.7737 97.6571 18.5369 97.0297 18.5369C96.4566 18.5369 95.9904 18.7681 95.6344 19.2321C95.3425 19.6009 95.169 20.0433 95.1156 20.5585H98.7671V20.5593Z"
    fill="white"
  />
  <path
    d="M40.3307 8.00745C40.3307 8.94905 40.0405 9.65785 39.4608 10.1339C38.9239 10.5731 38.1609 10.7931 37.1726 10.7931C36.6825 10.7931 36.2632 10.7723 35.9121 10.7307V5.58585C36.3701 5.51385 36.8634 5.47705 37.3962 5.47705C38.3377 5.47705 39.0472 5.67625 39.5258 6.07465C40.0619 6.52505 40.3307 7.16905 40.3307 8.00745ZM39.4222 8.03065C39.4222 7.42025 39.2561 6.95225 38.9239 6.62585C38.5917 6.30025 38.1066 6.13705 37.4678 6.13705C37.1964 6.13705 36.9654 6.15465 36.7738 6.19145V10.1027C36.8799 10.1187 37.0739 10.1259 37.3559 10.1259C38.0154 10.1259 38.5243 9.94745 38.8828 9.59065C39.2413 9.23385 39.4222 8.71385 39.4222 8.03065Z"
    fill="white"
  />
  <path
    d="M45.1478 8.82964C45.1478 9.40964 44.9776 9.88484 44.6372 10.2576C44.2803 10.6408 43.8075 10.832 43.2172 10.832C42.6482 10.832 42.1952 10.6488 41.8572 10.2808C41.5201 9.91364 41.3516 9.45044 41.3516 8.89204C41.3516 8.30804 41.5251 7.82884 41.8737 7.45684C42.2223 7.08484 42.691 6.89844 43.2813 6.89844C43.8503 6.89844 44.3075 7.08164 44.6536 7.44884C44.9825 7.80564 45.1478 8.26644 45.1478 8.82964ZM44.254 8.85684C44.254 8.50884 44.1767 8.21044 44.023 7.96164C43.8421 7.66084 43.5847 7.51044 43.2501 7.51044C42.9039 7.51044 42.6408 7.66084 42.4599 7.96164C42.3053 8.21044 42.2289 8.51364 42.2289 8.87204C42.2289 9.22004 42.3062 9.51844 42.4599 9.76724C42.6466 10.068 42.9064 10.2184 43.2419 10.2184C43.5707 10.2184 43.8289 10.0656 44.0147 9.75924C44.1743 9.50564 44.254 9.20484 44.254 8.85684Z"
    fill="white"
  />
  <path
    d="M51.607 6.97559L50.3942 10.7468H49.6049L49.1025 9.10919C48.9751 8.70039 48.8715 8.29399 48.7909 7.89079H48.7753C48.7004 8.30519 48.5968 8.71079 48.4636 9.10919L47.93 10.7468H47.1316L45.9912 6.97559H46.8767L47.315 8.76839C47.4211 9.19239 47.5082 9.59639 47.5781 9.97879H47.5937C47.6579 9.66359 47.7639 9.26199 47.9136 8.77639L48.4636 6.97639H49.1658L49.6929 8.73799C49.8203 9.16759 49.9239 9.58119 50.0037 9.97959H50.0275C50.0859 9.59159 50.1739 9.17799 50.2906 8.73799L50.7609 6.97639H51.607V6.97559Z"
    fill="white"
  />
  <path
    d="M56.0742 10.7464H55.2125V8.5864C55.2125 7.9208 54.9527 7.588 54.4314 7.588C54.1757 7.588 53.9693 7.6792 53.809 7.8624C53.6503 8.0456 53.5697 8.2616 53.5697 8.5088V10.7456H52.708V8.0528C52.708 7.7216 52.6973 7.3624 52.6768 6.9736H53.434L53.4743 7.5632H53.4982C53.5985 7.38 53.7481 7.2288 53.9446 7.108C54.1781 6.9672 54.4396 6.896 54.7257 6.896C55.0875 6.896 55.3884 7.0096 55.6277 7.2376C55.9253 7.5168 56.0742 7.9336 56.0742 8.4872V10.7464Z"
    fill="white"
  />
  <path d="M58.4507 10.7467H57.5898V5.24512H58.4507V10.7467Z" fill="white" />
  <path
    d="M63.5247 8.82964C63.5247 9.40964 63.3545 9.88484 63.0141 10.2576C62.6573 10.6408 62.1837 10.832 61.5941 10.832C61.0243 10.832 60.5713 10.6488 60.2342 10.2808C59.8971 9.91364 59.7285 9.45044 59.7285 8.89204C59.7285 8.30804 59.902 7.82884 60.2506 7.45684C60.5993 7.08484 61.0679 6.89844 61.6574 6.89844C62.2272 6.89844 62.6836 7.08164 63.0306 7.44884C63.3594 7.80564 63.5247 8.26644 63.5247 8.82964ZM62.6301 8.85684C62.6301 8.50884 62.5529 8.21044 62.3991 7.96164C62.219 7.66084 61.9608 7.51044 61.627 7.51044C61.28 7.51044 61.0169 7.66084 60.8369 7.96164C60.6823 8.21044 60.6058 8.51364 60.6058 8.87204C60.6058 9.22004 60.6831 9.51844 60.8369 9.76724C61.0235 10.068 61.2833 10.2184 61.6188 10.2184C61.9477 10.2184 62.205 10.0656 62.3909 9.75924C62.5512 9.50564 62.6301 9.20484 62.6301 8.85684Z"
    fill="white"
  />
  <path
    d="M67.6937 10.7464H66.92L66.8559 10.312H66.832C66.5673 10.6584 66.1899 10.832 65.6998 10.832C65.3339 10.832 65.0379 10.7176 64.8151 10.4904C64.6129 10.284 64.5117 10.0272 64.5117 9.72244C64.5117 9.26164 64.7091 8.91044 65.1062 8.66724C65.5025 8.42404 66.06 8.30484 66.7778 8.31044V8.24004C66.7778 7.74324 66.5097 7.49524 65.9728 7.49524C65.5905 7.49524 65.2534 7.58884 64.9623 7.77444L64.7872 7.22404C65.1473 7.00724 65.5921 6.89844 66.1167 6.89844C67.1297 6.89844 67.6378 7.41844 67.6378 8.45844V9.84724C67.6378 10.224 67.6567 10.524 67.6937 10.7464ZM66.7991 9.45044V8.86884C65.8486 8.85284 65.3734 9.10644 65.3734 9.62884C65.3734 9.82564 65.4277 9.97284 65.5387 10.0712C65.6497 10.1696 65.7911 10.2184 65.9597 10.2184C66.1488 10.2184 66.3255 10.16 66.4867 10.044C66.6487 9.92724 66.7482 9.77924 66.7852 9.59764C66.7942 9.55684 66.7991 9.50724 66.7991 9.45044Z"
    fill="white"
  />
  <path
    d="M72.5896 10.7467H71.825L71.7847 10.1411H71.7608C71.5166 10.6019 71.1006 10.8323 70.516 10.8323C70.049 10.8323 69.6601 10.6539 69.3517 10.2971C69.0434 9.94032 68.8896 9.47712 68.8896 8.90832C68.8896 8.29792 69.0566 7.80352 69.392 7.42592C69.7168 7.07392 70.1148 6.89792 70.5884 6.89792C71.1088 6.89792 71.4731 7.06832 71.6803 7.40992H71.6967V5.24512H72.5592V9.73072C72.5592 10.0979 72.5691 10.4363 72.5896 10.7467ZM71.6967 9.15632V8.52752C71.6967 8.41872 71.6885 8.33072 71.6729 8.26352C71.6244 8.06192 71.5199 7.89232 71.3612 7.75552C71.2009 7.61872 71.0077 7.54992 70.7849 7.54992C70.4634 7.54992 70.2118 7.67392 70.0268 7.92272C69.8434 8.17152 69.7505 8.48912 69.7505 8.87712C69.7505 9.24992 69.8385 9.55232 70.0153 9.78512C70.2019 10.0331 70.4535 10.1571 70.7684 10.1571C71.0513 10.1571 71.2774 10.0539 71.4492 9.84672C71.6153 9.65552 71.6967 9.42512 71.6967 9.15632Z"
    fill="white"
  />
  <path
    d="M79.9603 8.82964C79.9603 9.40964 79.7901 9.88484 79.4497 10.2576C79.0928 10.6408 78.6209 10.832 78.0297 10.832C77.4615 10.832 77.0085 10.6488 76.6697 10.2808C76.3326 9.91364 76.1641 9.45044 76.1641 8.89204C76.1641 8.30804 76.3376 7.82884 76.6862 7.45684C77.0348 7.08484 77.5035 6.89844 78.0946 6.89844C78.6628 6.89844 79.1208 7.08164 79.4661 7.44884C79.795 7.80564 79.9603 8.26644 79.9603 8.82964ZM79.0673 8.85684C79.0673 8.50884 78.99 8.21044 78.8363 7.96164C78.6546 7.66084 78.398 7.51044 78.0626 7.51044C77.7172 7.51044 77.4541 7.66084 77.2724 7.96164C77.1178 8.21044 77.0414 8.51364 77.0414 8.87204C77.0414 9.22004 77.1187 9.51844 77.2724 9.76724C77.4591 10.068 77.7189 10.2184 78.0544 10.2184C78.3832 10.2184 78.6422 10.0656 78.8281 9.75924C78.9868 9.50564 79.0673 9.20484 79.0673 8.85684Z"
    fill="white"
  />
  <path
    d="M84.5929 10.7464H83.732V8.5864C83.732 7.9208 83.4722 7.588 82.9501 7.588C82.6944 7.588 82.488 7.6792 82.3285 7.8624C82.169 8.0456 82.0892 8.2616 82.0892 8.5088V10.7456H81.2267V8.0528C81.2267 7.7216 81.2168 7.3624 81.1963 6.9736H81.9527L81.993 7.5632H82.0169C82.118 7.38 82.2676 7.2288 82.4633 7.108C82.6977 6.9672 82.9583 6.896 83.2453 6.896C83.6062 6.896 83.9071 7.0096 84.1464 7.2376C84.4449 7.5168 84.5929 7.9336 84.5929 8.4872V10.7464Z"
    fill="white"
  />
  <path
    d="M90.3918 7.60333H89.443V9.43533C89.443 9.90093 89.6116 10.1337 89.9454 10.1337C90.1 10.1337 90.2282 10.1209 90.3294 10.0945L90.3516 10.7305C90.1814 10.7929 89.9577 10.8241 89.6823 10.8241C89.3419 10.8241 89.0771 10.7233 88.8855 10.5217C88.6931 10.3201 88.5978 9.98093 88.5978 9.50493V7.60333H88.0312V6.97533H88.5978V6.28413L89.4422 6.03613V6.97453H90.391V7.60333H90.3918Z"
    fill="white"
  />
  <path
    d="M94.9541 10.7467H94.0916V8.60272C94.0916 7.92672 93.8317 7.58832 93.3113 7.58832C92.9117 7.58832 92.6387 7.78432 92.4891 8.17632C92.4636 8.25872 92.4488 8.35952 92.4488 8.47792V10.7459H91.5879V5.24512H92.4488V7.51792H92.4652C92.7365 7.10432 93.1255 6.89792 93.6295 6.89792C93.9863 6.89792 94.2815 7.01152 94.5158 7.23952C94.8077 7.52352 94.9541 7.94592 94.9541 8.50432V10.7467Z"
    fill="white"
  />
  <path
    d="M99.6598 8.6828C99.6598 8.8332 99.6483 8.9596 99.6277 9.0628H97.0435C97.055 9.4356 97.1783 9.7196 97.4176 9.9164C97.6363 10.0924 97.9183 10.1804 98.2637 10.1804C98.646 10.1804 98.9946 10.1212 99.3087 10.002L99.4436 10.5844C99.076 10.7396 98.6435 10.8172 98.1428 10.8172C97.5426 10.8172 97.0698 10.6452 96.7278 10.3012C96.3841 9.9572 96.2139 9.4956 96.2139 8.9164C96.2139 8.3476 96.3726 7.874 96.6924 7.4964C97.0262 7.0932 97.4776 6.8916 98.0474 6.8916C98.6049 6.8916 99.0283 7.0932 99.3145 7.4964C99.5455 7.8164 99.6598 8.2124 99.6598 8.6828ZM98.8376 8.466C98.8442 8.2172 98.7874 8.0028 98.6707 7.822C98.521 7.5892 98.2933 7.4724 97.9849 7.4724C97.7037 7.4724 97.4743 7.586 97.2992 7.814C97.1561 7.9956 97.0714 8.2124 97.0435 8.466H98.8376Z"
    fill="white"
  />
</svg>
