<svg width="287" height="42" viewBox="0 0 287 42" fill="none" xmlns="http://www.w3.org/2000/svg">
<path d="M164.34 15H163V36.0537H164.34V15Z" fill="#868E96"/>
<path d="M191.253 22.1413V29.4414C191.253 31.7879 192.325 32.9611 194.469 32.9611C196.12 32.9611 197.206 32.179 197.728 30.6147C197.873 30.1222 198.046 29.789 198.249 29.6152C198.481 29.4414 198.843 29.3545 199.336 29.3545H208.2C208.461 29.3545 208.678 29.4559 208.852 29.6587C209.055 29.8325 209.156 30.0498 209.156 30.3105C209.156 32.8308 208.432 34.9455 206.983 36.6547C204.318 39.8412 200.161 41.4345 194.512 41.4345C190.08 41.4345 186.546 40.4641 183.91 38.5232C181.273 36.5533 179.955 33.5405 179.955 29.4849V22.0978C179.955 18.1291 181.302 15.1453 183.997 13.1464C186.691 11.1476 190.196 10.1481 194.512 10.1481C200.161 10.1481 204.318 11.7414 206.983 14.928C208.432 16.6372 209.156 18.7519 209.156 21.2722C209.156 21.5329 209.055 21.7647 208.852 21.9674C208.678 22.1413 208.461 22.2282 208.2 22.2282H199.336C198.872 22.2282 198.524 22.1413 198.293 21.9674C198.09 21.7936 197.902 21.4605 197.728 20.968C197.177 19.4037 196.091 18.6215 194.469 18.6215C192.325 18.6215 191.253 19.7948 191.253 22.1413ZM241.271 39.566C241.358 39.7399 241.401 39.9282 241.401 40.1309C241.401 40.3337 241.3 40.5365 241.097 40.7393C240.923 40.9131 240.706 41 240.445 41H231.538C230.64 41 230.017 40.6089 229.669 39.8268L225.932 31.5272H224.15V39.8268C224.15 40.1454 224.035 40.4206 223.803 40.6524C223.571 40.8841 223.296 41 222.977 41H214.46C214.142 41 213.867 40.8841 213.635 40.6524C213.403 40.4206 213.287 40.1454 213.287 39.8268V11.7559C213.287 11.4372 213.403 11.162 213.635 10.9303C213.867 10.6985 214.142 10.5827 214.46 10.5827H227.323C231.494 10.5827 234.753 11.5242 237.1 13.4071C239.446 15.2611 240.619 17.9408 240.619 21.446C240.619 24.9223 239.055 27.6598 235.926 29.6587L241.271 39.566ZM224.15 18.665V23.271H227.323C227.96 23.271 228.452 23.0683 228.8 22.6627C229.148 22.2282 229.321 21.6922 229.321 21.0549C229.321 20.4176 229.148 19.8672 228.8 19.4037C228.481 18.9112 227.989 18.665 227.323 18.665H224.15ZM269.915 10.5827H276.781C277.099 10.5827 277.374 10.6985 277.606 10.9303C277.838 11.162 277.954 11.4372 277.954 11.7559V39.8268C277.954 40.1454 277.838 40.4206 277.606 40.6524C277.374 40.8841 277.099 41 276.781 41H268.916C268.597 41 268.322 40.8841 268.09 40.6524C267.858 40.4206 267.742 40.1454 267.742 39.8268V27.9205L264.874 32.6135C264.411 33.3377 263.875 33.6998 263.267 33.6998H260.225C259.617 33.6998 259.081 33.3377 258.617 32.6135L255.749 27.9205V39.8268C255.749 40.1454 255.633 40.4206 255.402 40.6524C255.17 40.8841 254.895 41 254.576 41H246.711C246.392 41 246.117 40.8841 245.885 40.6524C245.654 40.4206 245.538 40.1454 245.538 39.8268V11.7559C245.538 11.4372 245.654 11.162 245.885 10.9303C246.117 10.6985 246.392 10.5827 246.711 10.5827H253.577C254.388 10.5827 255.011 10.9737 255.445 11.7559L261.746 22.1847L268.047 11.7559C268.481 10.9737 269.104 10.5827 269.915 10.5827Z" fill="#AEAEAE"/>
<path d="M147.02 13.8582C147.129 13.6311 147.239 13.4039 147.239 13.1768C147.239 13.0632 147.239 12.8361 147.129 12.7225C147.02 12.6089 146.911 12.4954 146.801 12.3818C146.692 12.2682 146.473 12.2682 146.364 12.2682C146.145 12.2682 146.036 12.2682 145.817 12.2682H144.504V15.6754H145.379V14.4261H145.707L146.692 15.6754H147.786L146.473 14.199C146.692 14.0854 146.911 13.9718 147.02 13.8582ZM146.364 13.5175C146.364 13.6311 146.254 13.6311 146.254 13.6311C146.145 13.6311 146.145 13.7447 146.036 13.7447C145.926 13.7447 145.817 13.7447 145.707 13.7447H145.489V12.8361H145.707C145.817 12.8361 145.926 12.8361 146.036 12.8361C146.145 12.8361 146.145 12.8361 146.254 12.9496C146.364 12.9496 146.364 13.0632 146.364 13.0632C146.364 13.1768 146.364 13.1768 146.364 13.2904C146.364 13.2904 146.364 13.4039 146.364 13.5175ZM148.442 11.5868C147.02 10.2239 144.832 10.2239 143.41 11.5868C142.097 12.8361 141.988 14.8804 143.191 16.2433C143.301 16.3569 143.301 16.3569 143.41 16.4704C144.832 17.8333 147.02 17.8333 148.442 16.4704C149.755 15.2211 149.864 13.1768 148.661 11.8139C148.551 11.7003 148.442 11.7003 148.442 11.5868ZM147.895 15.9026C146.801 16.9247 145.051 16.9247 143.957 15.9026C143.41 15.4483 143.191 14.7668 143.191 13.9718C143.191 13.2904 143.52 12.4954 143.957 12.0411C145.051 11.0189 146.801 11.0189 147.895 12.0411C148.442 12.4954 148.661 13.1768 148.661 13.9718C148.661 14.7668 148.333 15.4483 147.895 15.9026ZM121.313 31.3485L114.859 13.4039H103.373L114.531 40.4344H127.658L138.925 13.4039H127.658L121.313 31.3485ZM26.4724 18.174C26.4724 18.174 26.363 18.174 26.4724 18.174C27.0193 17.9469 27.5663 17.6062 28.2226 17.2654C30.848 15.5618 32.4888 12.6089 32.4888 9.42887C32.3794 4.09092 28.1132 -0.111294 22.9719 0.0022794H23.5188H0V40.4344H19.2526C19.5808 40.4344 20.0184 40.4344 20.3465 40.4344H24.9409H25.4878C31.2855 40.3208 35.9893 35.3236 35.8799 29.3042C35.8799 29.1906 35.8799 29.0771 35.8799 29.0771C35.9893 23.6256 31.6137 19.4233 26.4724 18.174ZM11.2672 7.49813H16.846C17.5024 7.49813 18.1587 7.6117 18.7057 7.72527C19.909 8.17957 20.8935 9.20173 21.2216 10.451C21.331 10.7918 21.331 11.0189 21.331 11.3596C21.331 12.0411 21.2216 12.7225 21.0029 13.4039C20.6747 13.9718 20.2371 14.5397 19.7996 14.8804C19.5808 14.994 19.362 15.1075 19.1432 15.2211C18.4869 15.5618 17.7212 15.789 16.9554 15.789C16.1897 15.789 15.8615 15.9026 14.1113 15.9026H11.2672V7.49813ZM21.7686 31.9164C20.6747 32.5979 19.4714 32.9386 18.2681 32.9386H11.2672V22.9441H17.1742C17.6118 22.9441 17.9399 22.9441 18.1587 22.9441C19.0338 22.9441 19.909 23.0577 20.7841 23.2848C20.8935 23.3984 21.1123 23.3984 21.331 23.512C23.6282 24.5341 24.7221 27.3735 23.7376 29.7585C23.3 30.6671 22.6437 31.4621 21.7686 31.9164ZM59.7269 13.5175L49.9912 25.6699V0.0022794H39.0522V40.4344H49.9912L54.695 34.6422L59.0705 40.4344H71.541L61.0396 26.692L71.541 13.5175H59.7269ZM99.7636 14.5397C97.5758 12.9496 92.1063 12.1546 87.2931 12.1546C85.3241 12.1546 83.3551 12.3818 81.3861 12.6089C79.0889 12.9496 76.6823 13.5175 74.4945 14.4261L77.6668 20.5591C79.7452 19.3098 82.0424 18.6283 84.449 18.2876C85.8711 18.0605 87.4025 18.0605 88.8246 18.174C89.6997 18.2876 90.5748 18.5147 91.3406 19.0826C92.2157 19.7641 92.7626 20.8998 92.6532 22.0355V22.2627C88.4964 22.2627 84.449 22.717 80.4016 23.6255C76.6823 24.6477 72.8537 27.9413 72.8537 32.1436C72.8537 36.9136 77.1199 40.7751 82.0424 40.7751C82.1518 40.7751 83.3551 40.7751 83.3551 40.7751C86.6368 40.6616 89.8091 39.6394 92.5439 37.9358L94.4035 40.3208H103.264V21.6948C103.264 18.8555 101.951 16.1297 99.7636 14.5397ZM92.4345 33.0521C91.0124 34.415 89.2622 35.3236 87.2931 35.4372C87.0744 35.4372 86.965 35.4372 86.7462 35.4372C86.6368 35.4372 86.6368 35.4372 86.5274 35.4372H86.418C84.5584 35.21 83.2457 33.3929 83.4645 31.4621C83.6833 29.8721 84.8866 28.6228 86.418 28.3956H86.5274C88.0589 28.0549 92.4345 27.7142 92.4345 27.7142V33.0521Z" fill="#F05A22"/>
</svg>
