<?xml version="1.0" standalone="no"?>
<!DOCTYPE svg PUBLIC "-//W3C//DTD SVG 20010904//EN"
 "http://www.w3.org/TR/2001/REC-SVG-20010904/DTD/svg10.dtd">
<svg version="1.0" xmlns="http://www.w3.org/2000/svg"
 width="512.000000pt" height="512.000000pt" viewBox="0 0 512.000000 512.000000"
 preserveAspectRatio="xMidYMid meet">

<g transform="translate(0.000000,512.000000) scale(0.100000,-0.100000)"
fill="#000000" stroke="none">
<path d="M3046 4719 c-467 -64 -858 -371 -1019 -799 -190 -506 9 -1097 475
-1407 374 -249 878 -283 1273 -86 369 184 621 524 679 916 19 123 20 206 5
314 -23 167 -80 334 -158 462 -191 309 -480 509 -846 586 -96 20 -313 28 -409
14z m333 -280 c389 -62 720 -370 795 -741 48 -233 -3 -490 -135 -687 -106
-160 -264 -288 -445 -362 -139 -57 -225 -73 -389 -72 -213 1 -366 46 -545 161
-190 122 -329 307 -397 529 -24 79 -27 104 -27 243 -1 132 3 167 22 233 139
483 611 777 1121 696z"/>
<path d="M3153 4271 c-54 -25 -75 -66 -81 -158 l-5 -71 -39 -18 c-55 -25 -121
-91 -155 -155 -24 -48 -28 -65 -28 -144 0 -76 4 -98 26 -145 56 -118 162 -188
304 -201 98 -8 110 -13 125 -49 12 -29 2 -65 -24 -82 -6 -4 -96 -8 -201 -8
-225 -1 -259 -7 -302 -54 -28 -30 -33 -43 -33 -83 0 -60 26 -104 73 -126 26
-13 63 -17 151 -17 l116 0 0 -57 c0 -121 92 -192 194 -149 54 23 77 65 83 155
6 77 6 78 39 90 93 34 182 163 192 276 16 201 -128 357 -345 374 -73 6 -88 10
-104 30 -26 31 -24 57 6 86 24 25 25 25 231 25 172 0 212 3 241 17 47 22 73
66 73 126 0 40 -5 53 -32 83 -40 43 -80 53 -210 54 l-98 0 0 53 c0 124 -95
195 -197 148z"/>
<path d="M140 2492 c-19 -9 -43 -33 -55 -52 -20 -34 -20 -51 -23 -950 -2 -503
0 -939 3 -969 5 -41 14 -61 40 -90 l33 -36 641 -3 c709 -3 681 -5 721 61 16
25 20 50 20 120 l0 87 748 0 c445 0 783 4 836 10 167 20 197 34 1036 510 856
485 859 487 899 596 60 157 -21 355 -176 430 -72 36 -179 44 -251 20 -28 -10
-250 -112 -493 -227 -243 -115 -443 -208 -444 -206 -42 96 -96 156 -170 191
-76 36 -119 40 -276 26 -278 -26 -464 18 -678 162 -40 28 -101 63 -135 79
-233 109 -547 93 -878 -46 -14 -6 -17 6 -20 108 -3 107 -5 117 -28 142 -53 57
-28 55 -697 55 -568 0 -621 -1 -653 -18z m1110 -1047 l0 -785 -455 0 -455 0 0
785 0 785 455 0 455 0 0 -785z m969 578 c55 -14 100 -38 254 -133 216 -134
459 -186 760 -160 160 13 177 10 177 -36 0 -31 -28 -48 -133 -84 -135 -46
-231 -60 -406 -60 -137 0 -160 -2 -188 -20 -40 -24 -56 -54 -56 -105 0 -53 26
-100 66 -122 50 -28 345 -25 483 5 122 26 292 84 353 119 99 58 1168 553 1193
553 17 0 34 -10 47 -26 26 -33 26 -55 4 -83 -10 -11 -355 -213 -768 -448 -524
-299 -774 -436 -830 -455 l-80 -28 -787 0 -788 0 0 470 0 469 44 26 c97 57
267 115 394 135 69 10 186 3 261 -17z"/>
</g>
</svg>
