<svg width="20" height="23" viewBox="0 0 20 23" fill="none" xmlns="http://www.w3.org/2000/svg">
  <path d="M16.1576 14.7949C15.5823 14.798 15.0151 14.939 14.4977 15.2074C13.9803 15.4758 13.5259 15.8648 13.1681 16.3457L7.55047 12.596C7.75521 11.8905 7.75521 11.1353 7.55047 10.4298L13.1681 6.68012C13.7383 7.43393 14.54 7.94795 15.4311 8.13111C16.3223 8.31427 17.2454 8.15476 18.0369 7.68083C18.8285 7.2069 19.4373 6.44914 19.7557 5.54179C20.0741 4.63443 20.0814 3.63605 19.7763 2.7235C19.4713 1.81094 18.8736 1.04312 18.089 0.556045C17.3045 0.0689678 16.3839 -0.105924 15.4902 0.0623505C14.5964 0.230625 13.7874 0.731204 13.2062 1.47541C12.6251 2.21962 12.3094 3.15943 12.3151 4.12834C12.3187 4.49526 12.3705 4.85982 12.4688 5.21141L6.85115 8.96113C6.3552 8.29453 5.67731 7.80918 4.91144 7.57233C4.14558 7.33549 3.32967 7.3589 2.57682 7.6393C1.82397 7.91971 1.17147 8.44323 0.709756 9.13729C0.248046 9.83136 0 10.6616 0 11.5129C0 12.3642 0.248046 13.1945 0.709756 13.8885C1.17147 14.5826 1.82397 15.1061 2.57682 15.3865C3.32967 15.6669 4.14558 15.6903 4.91144 15.4535C5.67731 15.2166 6.3552 14.7313 6.85115 14.0647L12.4688 17.8144C12.3705 18.166 12.3187 18.5306 12.3151 18.8975C12.3151 19.7089 12.5405 20.5021 12.9627 21.1767C13.3849 21.8514 13.985 22.3772 14.6871 22.6877C15.3892 22.9982 16.1618 23.0795 16.9072 22.9212C17.6525 22.7629 18.3372 22.3721 18.8746 21.7984C19.4119 21.2246 19.7779 20.4936 19.9262 19.6978C20.0744 18.902 19.9983 18.0771 19.7075 17.3275C19.4167 16.5779 18.9242 15.9371 18.2923 15.4863C17.6604 15.0355 16.9175 14.7949 16.1576 14.7949ZM16.1576 1.66682C16.6135 1.66682 17.0593 1.81119 17.4384 2.08166C17.8175 2.35214 18.113 2.73658 18.2875 3.18636C18.462 3.63614 18.5077 4.13107 18.4187 4.60856C18.3298 5.08605 18.1102 5.52465 17.7878 5.8689C17.4653 6.21315 17.0545 6.44759 16.6073 6.54257C16.1601 6.63754 15.6966 6.5888 15.2753 6.40249C14.854 6.21618 14.494 5.90068 14.2406 5.49589C13.9873 5.09109 13.8521 4.61519 13.8521 4.12834C13.8521 3.47551 14.095 2.84941 14.5273 2.38778C14.9597 1.92616 15.5461 1.66682 16.1576 1.66682ZM3.86172 13.9744C3.40575 13.9744 2.96001 13.8301 2.58088 13.5596C2.20174 13.2891 1.90625 12.9047 1.73175 12.4549C1.55725 12.0051 1.5116 11.5102 1.60056 11.0327C1.68951 10.5552 1.90909 10.1166 2.23151 9.77235C2.55394 9.4281 2.96473 9.19366 3.41195 9.09868C3.85917 9.0037 4.32272 9.05245 4.74399 9.23876C5.16526 9.42506 5.52532 9.74056 5.77865 10.1454C6.03198 10.5502 6.16719 11.0261 6.16719 11.5129C6.16719 12.1657 5.9243 12.7918 5.49194 13.2535C5.05958 13.7151 4.47317 13.9744 3.86172 13.9744ZM16.1576 21.359C15.7016 21.359 15.2558 21.2146 14.8767 20.9441C14.4976 20.6737 14.2021 20.2892 14.0276 19.8394C13.8531 19.3897 13.8074 18.8947 13.8964 18.4172C13.9853 17.9398 14.2049 17.5012 14.5273 17.1569C14.8498 16.8127 15.2606 16.5782 15.7078 16.4832C16.155 16.3883 16.6185 16.437 17.0398 16.6233C17.4611 16.8096 17.8211 17.1251 18.0745 17.5299C18.3278 17.9347 18.463 18.4106 18.463 18.8975C18.463 19.5503 18.2201 20.1764 17.7878 20.638C17.3554 21.0996 16.769 21.359 16.1576 21.359Z" fill="#868E96"/>
</svg>
